<svg width="683" height="675" viewBox="0 0 683 675" fill="none" xmlns="http://www.w3.org/2000/svg">
<g id="langing-svgs">
<g id="svg-laptop-1" clip-path="url(#clip0_11_531)">
<path id="Vector" d="M330.865 299.416L394.59 276.615L359.71 179.13C358.586 175.987 355.127 174.351 351.984 175.476L199.497 230.035C196.355 231.16 194.719 234.619 195.843 237.761L230.724 335.247L294.449 312.445L330.865 299.416ZM212.683 256.125L206.168 237.917L351.828 185.8L358.342 204.008L382.229 270.769L236.57 322.885L212.683 256.125Z" fill="#464655"/>
<path id="Vector_2" d="M358.342 204.008L212.683 256.125L236.57 322.886L382.229 270.769L358.342 204.008ZM290.941 245.239L305.056 284.689C305.656 286.365 304.783 288.21 303.107 288.809L245.451 309.439C243.775 310.039 241.93 309.166 241.33 307.49L227.215 268.041L226.129 265.006C225.53 263.33 226.402 261.485 228.078 260.885L285.735 240.256C287.411 239.656 289.256 240.529 289.855 242.205L290.941 245.239ZM321.287 234.382L335.402 273.831C336.002 275.507 335.129 277.352 333.453 277.952L315.246 284.466C313.57 285.066 311.725 284.193 311.125 282.518L297.01 243.068L295.924 240.033C295.325 238.357 296.197 236.512 297.873 235.913L316.081 229.398C317.757 228.798 319.602 229.671 320.201 231.347L321.287 234.382ZM354.667 222.438L368.782 261.888C369.382 263.564 368.509 265.409 366.833 266.008L348.626 272.523C346.95 273.123 345.105 272.25 344.505 270.574L330.39 231.125L329.304 228.09C328.705 226.414 329.577 224.569 331.253 223.969L349.461 217.455C351.137 216.855 352.982 217.728 353.581 219.404L354.667 222.438Z" fill="white"/>
<path id="Vector_3" d="M351.828 185.801L206.168 237.918L212.683 256.125L358.342 204.008L351.828 185.801ZM249.961 235.941L219.615 246.799C217.939 247.398 216.094 246.526 215.495 244.85C214.895 243.174 215.768 241.329 217.444 240.729L247.789 229.871C249.465 229.272 251.31 230.145 251.91 231.82C252.51 233.496 251.637 235.341 249.961 235.941ZM274.237 227.255L262.099 231.598C260.423 232.197 258.578 231.325 257.979 229.649C257.379 227.973 258.252 226.128 259.928 225.528L272.066 221.185C273.741 220.586 275.587 221.458 276.186 223.134C276.786 224.81 275.913 226.655 274.237 227.255ZM298.514 218.569L286.376 222.912C284.7 223.511 282.855 222.639 282.255 220.963C281.656 219.287 282.528 217.442 284.204 216.842L296.342 212.499C298.018 211.9 299.863 212.772 300.463 214.448C301.062 216.124 300.19 217.969 298.514 218.569ZM322.791 209.882L310.652 214.225C308.977 214.825 307.132 213.952 306.532 212.277C305.932 210.601 306.805 208.756 308.481 208.156L320.619 203.813C322.295 203.213 324.14 204.086 324.739 205.762C325.339 207.438 324.466 209.283 322.791 209.882ZM347.067 201.196L334.929 205.539C333.253 206.139 331.408 205.266 330.808 203.59C330.209 201.915 331.081 200.07 332.757 199.47L344.895 195.127C346.571 194.527 348.416 195.4 349.016 197.076C349.615 198.752 348.743 200.597 347.067 201.196Z" fill="#FF6469"/>
<path id="Vector_4" d="M247.789 229.872L217.444 240.729C215.768 241.329 214.895 243.174 215.495 244.85C216.094 246.526 217.939 247.399 219.615 246.799L249.961 235.941C251.637 235.342 252.51 233.496 251.91 231.821C251.31 230.145 249.465 229.272 247.789 229.872Z" fill="#FFDC69"/>
<g id="Group">
<path id="Vector_5" d="M272.066 221.186L259.928 225.529C258.252 226.128 257.379 227.973 257.979 229.649C258.578 231.325 260.424 232.198 262.099 231.598L274.238 227.255C275.913 226.656 276.786 224.81 276.186 223.135C275.587 221.459 273.742 220.586 272.066 221.186Z" fill="#D2555F"/>
<path id="Vector_6" d="M296.343 212.499L284.204 216.843C282.529 217.442 281.656 219.287 282.255 220.963C282.855 222.639 284.7 223.512 286.376 222.912L298.514 218.569C300.19 217.969 301.063 216.124 300.463 214.448C299.863 212.773 298.018 211.9 296.343 212.499Z" fill="#D2555F"/>
<path id="Vector_7" d="M320.619 203.813L308.481 208.156C306.805 208.756 305.932 210.601 306.532 212.277C307.132 213.953 308.977 214.825 310.653 214.226L322.791 209.883C324.467 209.283 325.339 207.438 324.74 205.762C324.14 204.086 322.295 203.214 320.619 203.813Z" fill="#D2555F"/>
<path id="Vector_8" d="M344.896 195.127L332.757 199.47C331.082 200.07 330.209 201.915 330.808 203.591C331.408 205.267 333.253 206.139 334.929 205.54L347.067 201.197C348.743 200.597 349.616 198.752 349.016 197.076C348.416 195.4 346.571 194.528 344.896 195.127Z" fill="#D2555F"/>
</g>
<g id="Group_2">
<path id="Vector_9" d="M288.993 249.36L231.336 269.99C229.66 270.589 227.815 269.716 227.215 268.041L241.33 307.49C241.93 309.166 243.775 310.039 245.451 309.439L303.108 288.809C304.783 288.21 305.656 286.365 305.057 284.689L290.941 245.239C291.541 246.915 290.668 248.76 288.993 249.36Z" fill="#DEE3ED"/>
<path id="Vector_10" d="M319.338 238.502L301.131 245.017C299.455 245.616 297.61 244.744 297.01 243.068L311.125 282.517C311.725 284.193 313.57 285.066 315.246 284.466L333.453 277.952C335.129 277.352 336.002 275.507 335.402 273.831L321.287 234.382C321.887 236.057 321.014 237.903 319.338 238.502Z" fill="#DEE3ED"/>
<path id="Vector_11" d="M352.719 226.559L334.511 233.073C332.836 233.673 330.99 232.8 330.391 231.124L344.506 270.574C345.106 272.25 346.951 273.122 348.626 272.523L366.834 266.008C368.51 265.409 369.383 263.563 368.783 261.888L354.668 222.438C355.267 224.114 354.395 225.959 352.719 226.559Z" fill="#DEE3ED"/>
</g>
<path id="Vector_12" d="M285.735 240.256L228.078 260.886C226.403 261.485 225.53 263.33 226.13 265.006L227.215 268.041C227.815 269.717 229.66 270.589 231.336 269.99L288.993 249.36C290.668 248.761 291.541 246.916 290.942 245.24L289.856 242.205C289.256 240.529 287.411 239.657 285.735 240.256Z" fill="#FFDC69"/>
<path id="Vector_13" d="M316.081 229.398L297.873 235.913C296.198 236.513 295.325 238.358 295.924 240.034L297.01 243.068C297.61 244.744 299.455 245.617 301.131 245.017L319.338 238.503C321.014 237.903 321.887 236.058 321.287 234.382L320.201 231.347C319.602 229.671 317.757 228.799 316.081 229.398Z" fill="#B4E173"/>
<path id="Vector_14" d="M349.462 217.455L331.254 223.97C329.578 224.569 328.705 226.414 329.305 228.09L330.391 231.125C330.99 232.801 332.836 233.673 334.511 233.074L352.719 226.559C354.395 225.959 355.267 224.114 354.668 222.438L353.582 219.404C352.982 217.728 351.137 216.855 349.462 217.455Z" fill="#FF969B"/>
<path id="laptop-bottom" d="M230.725 335.245L394.589 276.615L375.743 351.885C374.689 356.098 371.601 359.505 367.512 360.968L224.282 412.216C218.262 414.37 212.273 408.942 213.826 402.741L230.725 335.245Z" fill="#464655"/>
<g id="keyboard-back">
<path d="M240.403 342.077C241.073 339.522 242.96 337.463 245.446 336.573L375.126 290.174C377.397 289.361 379.65 291.426 379.038 293.759L370.413 326.653C369.743 329.208 367.856 331.267 365.37 332.157L235.69 378.556C233.419 379.369 231.166 377.304 231.777 374.97L240.403 342.077Z" fill="#BEC8DC"/>
<path d="M240.403 342.077C241.073 339.522 242.96 337.463 245.446 336.573L375.126 290.174C377.397 289.361 379.65 291.426 379.038 293.759L370.413 326.653C369.743 329.208 367.856 331.267 365.37 332.157L235.69 378.556C233.419 379.369 231.166 377.304 231.777 374.97L240.403 342.077Z" fill="#BEC8DC"/>
</g>
<g id="keys">
<g id="keyboard-keys">
<path id="Vector_15" d="M369.194 296.348L351.235 302.774C350.243 303.129 349.842 304.542 350.338 305.931C350.835 307.319 352.042 308.157 353.034 307.803L370.994 301.377C371.985 301.022 372.387 299.608 371.89 298.22C371.393 296.831 370.186 295.993 369.194 296.348Z" fill="#96A5B9"/>
<path id="Vector_16" d="M319.614 338.399L281.899 351.893C279.816 352.638 278.53 354.368 279.027 355.757C279.524 357.145 281.616 357.667 283.698 356.922L321.413 343.427C323.496 342.682 324.782 340.952 324.285 339.563C323.789 338.175 321.697 337.653 319.614 338.399Z" fill="#96A5B9"/>
<g id="keyboard-keys_2">
<path id="Vector_17" d="M257.964 336.146L247.236 339.985C245.755 340.515 244.957 342.07 245.454 343.459C245.951 344.847 247.554 345.543 249.036 345.013L259.763 341.175C261.244 340.645 262.043 339.089 261.546 337.701C261.049 336.312 259.445 335.616 257.964 336.146Z" fill="#96A5B9"/>
<path id="Vector_18" d="M279.42 328.469L268.692 332.308C267.211 332.838 266.413 334.393 266.91 335.782C267.406 337.17 269.01 337.866 270.491 337.336L281.219 333.498C282.7 332.968 283.498 331.412 283.002 330.024C282.505 328.635 280.901 327.939 279.42 328.469Z" fill="#A3AEC1"/>
<path id="Vector_19" d="M300.876 320.792L290.148 324.631C288.667 325.161 287.869 326.716 288.366 328.105C288.863 329.493 290.466 330.189 291.947 329.66L302.675 325.821C304.156 325.291 304.954 323.736 304.458 322.347C303.961 320.959 302.357 320.262 300.876 320.792Z" fill="#A3AEC1"/>
<path id="Vector_20" d="M322.332 313.116L311.604 316.954C310.123 317.484 309.324 319.039 309.821 320.428C310.318 321.816 311.922 322.513 313.403 321.983L324.131 318.144C325.612 317.614 326.41 316.059 325.913 314.67C325.416 313.282 323.813 312.586 322.332 313.116Z" fill="#A3AEC1"/>
<path id="Vector_21" d="M343.452 305.558L332.725 309.397C331.243 309.927 330.445 311.482 330.942 312.871C331.439 314.259 333.043 314.956 334.524 314.426L345.252 310.587C346.733 310.057 347.531 308.502 347.034 307.113C346.537 305.725 344.934 305.029 343.452 305.558Z" fill="#A3AEC1"/>
<path id="Vector_22" d="M256.224 344.872L245.496 348.711C244.015 349.241 243.217 350.796 243.714 352.185C244.211 353.573 245.814 354.269 247.296 353.739L258.023 349.901C259.504 349.371 260.303 347.816 259.806 346.427C259.309 345.039 257.705 344.342 256.224 344.872Z" fill="#96A5B9"/>
<path id="Vector_23" d="M269.874 339.989L263.169 342.388C262.243 342.719 261.895 344.113 262.392 345.502C262.889 346.89 264.042 347.748 264.968 347.416L271.673 345.017C272.599 344.686 272.946 343.292 272.449 341.903C271.953 340.515 270.799 339.657 269.874 339.989Z" fill="#A3AEC1"/>
<path id="Vector_24" d="M247.716 364.124L241.011 366.523C240.085 366.854 239.737 368.248 240.234 369.637C240.731 371.025 241.884 371.883 242.81 371.552L249.515 369.153C250.441 368.821 250.788 367.427 250.292 366.038C249.795 364.65 248.641 363.793 247.716 364.124Z" fill="#96A5B9"/>
<path id="Vector_25" d="M260.647 359.497L253.942 361.896C253.016 362.227 252.668 363.622 253.165 365.01C253.662 366.399 254.815 367.256 255.741 366.925L262.446 364.526C263.371 364.195 263.719 362.8 263.222 361.412C262.726 360.023 261.572 359.166 260.647 359.497Z" fill="#A3AEC1"/>
<path id="Vector_26" d="M272.859 355.127L266.154 357.526C265.229 357.858 264.881 359.252 265.378 360.641C265.874 362.029 267.028 362.886 267.954 362.555L274.658 360.156C275.584 359.825 275.932 358.431 275.435 357.042C274.938 355.654 273.785 354.796 272.859 355.127Z" fill="#A3AEC1"/>
<path id="Vector_27" d="M336.796 332.251L330.091 334.65C329.165 334.981 328.817 336.376 329.314 337.764C329.811 339.153 330.964 340.01 331.89 339.679L338.595 337.28C339.521 336.948 339.868 335.554 339.372 334.165C338.875 332.777 337.721 331.92 336.796 332.251Z" fill="#A3AEC1"/>
<path id="Vector_28" d="M349.727 327.624L343.022 330.023C342.096 330.354 341.748 331.749 342.245 333.137C342.742 334.526 343.895 335.383 344.821 335.052L351.526 332.653C352.452 332.322 352.799 330.927 352.303 329.539C351.806 328.15 350.652 327.293 349.727 327.624Z" fill="#A3AEC1"/>
<path id="Vector_29" d="M361.939 323.255L355.234 325.654C354.309 325.985 353.961 327.379 354.458 328.768C354.955 330.156 356.108 331.013 357.034 330.682L363.739 328.283C364.664 327.952 365.012 326.558 364.515 325.169C364.018 323.781 362.865 322.923 361.939 323.255Z" fill="#96A5B9"/>
<path id="Vector_30" d="M282.804 335.362L276.1 337.761C275.174 338.092 274.826 339.487 275.323 340.875C275.82 342.264 276.973 343.121 277.899 342.79L284.604 340.391C285.529 340.059 285.877 338.665 285.38 337.276C284.884 335.888 283.73 335.031 282.804 335.362Z" fill="#A3AEC1"/>
<path id="Vector_31" d="M295.735 330.735L289.031 333.134C288.105 333.465 287.757 334.86 288.254 336.248C288.751 337.637 289.904 338.494 290.83 338.163L297.535 335.764C298.46 335.433 298.808 334.038 298.311 332.65C297.815 331.261 296.661 330.404 295.735 330.735Z" fill="#A3AEC1"/>
<path id="Vector_32" d="M307.948 326.365L301.243 328.764C300.318 329.096 299.97 330.49 300.467 331.879C300.963 333.267 302.117 334.124 303.042 333.793L309.747 331.394C310.673 331.063 311.021 329.669 310.524 328.28C310.027 326.892 308.874 326.034 307.948 326.365Z" fill="#A3AEC1"/>
<path id="Vector_33" d="M320.879 321.739L314.174 324.138C313.248 324.469 312.901 325.863 313.397 327.252C313.894 328.64 315.048 329.498 315.973 329.166L322.678 326.768C323.604 326.436 323.952 325.042 323.455 323.653C322.958 322.265 321.805 321.408 320.879 321.739Z" fill="#A3AEC1"/>
<path id="Vector_34" d="M333.81 317.112L327.105 319.511C326.18 319.842 325.832 321.237 326.329 322.625C326.825 324.014 327.979 324.871 328.905 324.54L335.609 322.141C336.535 321.81 336.883 320.415 336.386 319.027C335.889 317.638 334.736 316.781 333.81 317.112Z" fill="#A3AEC1"/>
<path id="Vector_35" d="M346.741 312.485L340.036 314.884C339.11 315.216 338.763 316.61 339.26 317.998C339.756 319.387 340.91 320.244 341.835 319.913L348.54 317.514C349.466 317.183 349.814 315.788 349.317 314.4C348.82 313.011 347.667 312.154 346.741 312.485Z" fill="#A3AEC1"/>
<path id="Vector_36" d="M267.415 348.972L260.71 351.371C259.785 351.702 259.437 353.096 259.934 354.485C260.431 355.873 261.584 356.731 262.51 356.399L269.215 354C270.14 353.669 270.488 352.275 269.991 350.886C269.494 349.498 268.341 348.641 267.415 348.972Z" fill="#A3AEC1"/>
<path id="Vector_37" d="M280.346 344.345L273.641 346.744C272.716 347.075 272.368 348.47 272.865 349.858C273.362 351.247 274.515 352.104 275.441 351.773L282.145 349.374C283.071 349.043 283.419 347.648 282.922 346.26C282.425 344.871 281.272 344.014 280.346 344.345Z" fill="#A3AEC1"/>
<path id="Vector_38" d="M293.277 339.718L286.572 342.117C285.647 342.449 285.299 343.843 285.796 345.231C286.292 346.62 287.446 347.477 288.372 347.146L295.076 344.747C296.002 344.416 296.35 343.021 295.853 341.633C295.356 340.244 294.203 339.387 293.277 339.718Z" fill="#A3AEC1"/>
<path id="Vector_39" d="M306.208 335.092L299.503 337.491C298.578 337.822 298.23 339.216 298.727 340.605C299.223 341.993 300.377 342.851 301.302 342.519L308.007 340.12C308.933 339.789 309.281 338.395 308.784 337.006C308.287 335.618 307.134 334.76 306.208 335.092Z" fill="#A3AEC1"/>
<path id="Vector_40" d="M319.139 330.465L312.434 332.864C311.509 333.195 311.161 334.59 311.658 335.978C312.154 337.367 313.308 338.224 314.234 337.893L320.938 335.494C321.864 335.162 322.212 333.768 321.715 332.379C321.218 330.991 320.065 330.134 319.139 330.465Z" fill="#A3AEC1"/>
<path id="Vector_41" d="M332.07 325.838L325.365 328.237C324.44 328.568 324.092 329.963 324.589 331.351C325.085 332.74 326.239 333.597 327.165 333.266L333.869 330.867C334.795 330.536 335.143 329.141 334.646 327.753C334.149 326.364 332.996 325.507 332.07 325.838Z" fill="#A3AEC1"/>
<path id="Vector_42" d="M345.001 321.211L338.296 323.61C337.37 323.942 337.023 325.336 337.52 326.725C338.016 328.113 339.17 328.97 340.095 328.639L346.8 326.24C347.726 325.909 348.074 324.515 347.577 323.126C347.08 321.738 345.927 320.88 345.001 321.211Z" fill="#A3AEC1"/>
<path id="Vector_43" d="M253.766 353.855L243.038 357.694C241.557 358.224 240.759 359.779 241.256 361.168C241.752 362.556 243.356 363.253 244.837 362.723L255.565 358.884C257.046 358.354 257.844 356.799 257.348 355.41C256.851 354.022 255.247 353.326 253.766 353.855Z" fill="#96A5B9"/>
<path id="Vector_44" d="M366.137 305.545L355.41 309.384C353.929 309.914 353.13 311.469 353.627 312.858C354.124 314.246 355.728 314.942 357.209 314.412L367.937 310.574C369.418 310.044 370.216 308.488 369.719 307.1C369.222 305.711 367.619 305.015 366.137 305.545Z" fill="#96A5B9"/>
<path id="Vector_45" d="M364.398 314.271L353.67 318.11C352.189 318.64 351.391 320.195 351.887 321.584C352.384 322.972 353.988 323.668 355.469 323.139L366.197 319.3C367.678 318.77 368.476 317.215 367.979 315.826C367.483 314.438 365.879 313.741 364.398 314.271Z" fill="#96A5B9"/>
</g>
</g>
</g>
<path id="keypad" d="M269.594 366.224L328.911 345L322.066 371.877L262.748 393.101L269.594 366.224Z" fill="#96A5B9"/>
</g>
<g id="svg-notes">
<g id="svg-notebook" clip-path="url(#clip1_11_531)">
<g id="XMLID_1015_">
<path id="XMLID_1016_" d="M46.0082 130.356V118.854H76.6803V107.352H46.0082V95.8503H76.6803V84.3482H46.0082V72.8462H76.6803V61.3442H46.0082V49.8421H76.6803V26.8381H19.1702V153.36H76.6803V130.356H46.0082Z" fill="#DEDDE0"/>
<path id="XMLID_1017_" d="M76.6804 49.8421V61.3442V72.8462H107.353V84.3482H76.6804V95.8503H107.353V107.352H76.6804V118.854H107.353V130.356H76.6804V153.36H134.191V26.8381H76.6804V49.8421Z" fill="#CDCDD0"/>
<path id="XMLID_1018_" d="M120.772 7.66803V15.3361H109.27V7.66803H82.4314V15.3361H76.6804V26.8381H134.191V7.66803H120.772Z" fill="#FF9811"/>
<path id="XMLID_1019_" d="M76.6803 15.3361H70.9293V7.66803H44.0912V15.3361H32.5892V7.66803H19.1702V26.8381H76.6803V15.3361Z" fill="#FFDA44"/>
<path id="XMLID_1020_" d="M76.6804 49.8422H46.0083V61.3442H76.6804V49.8422Z" fill="white"/>
<path id="XMLID_1021_" d="M46.0083 84.3482H76.6804H107.352V72.8462H76.6804H46.0083V84.3482Z" fill="white"/>
<path id="XMLID_1022_" d="M46.0083 107.352H76.6804H107.352V95.8503H76.6804H46.0083V107.352Z" fill="white"/>
<path id="XMLID_1023_" d="M46.0083 130.356H76.6804H107.352V118.854H76.6804H46.0083V130.356Z" fill="white"/>
<path id="XMLID_1024_" d="M44.0911 15.336V7.66802V0H32.5891V7.66802V15.336H44.0911Z" fill="#565659"/>
<path id="XMLID_1025_" d="M76.6805 15.336H82.4315V7.66802V0H70.9294V7.66802V15.336H76.6805Z" fill="#565659"/>
<path id="XMLID_1026_" d="M120.772 15.336V7.66802V0H109.27V7.66802V15.336H120.772Z" fill="#565659"/>
</g>
</g>
<g id="svg-pencil">
<path id="Vector_46" d="M117.9 104.42L124.656 111.176L153.37 82.4633L149.992 79.0853L146.614 75.7072L137.855 84.4658L133.098 89.2228L117.9 104.42Z" fill="#D75055"/>
<path id="Vector_47" d="M153.37 82.4631V82.4633L124.656 111.176L131.413 117.932L160.122 89.2227L160.126 89.2191L153.37 82.4631Z" fill="#FF6469"/>
<g id="Group_3">
<path id="Vector_48" d="M146.614 75.7072L149.992 79.0853L146.614 75.7072Z" fill="#FFF0BE"/>
<path id="Vector_49" d="M160.126 89.2191L164.64 84.7055C164.717 84.6284 164.789 84.5483 164.856 84.4657C165.873 83.2202 165.801 81.3821 164.64 80.2206L160.126 75.707L153.37 82.4632L160.126 89.2191Z" fill="#FFF0BE"/>
<path id="Vector_50" d="M109.124 125.462C109.228 126.139 109.804 126.682 110.495 126.726C109.804 126.682 109.228 126.139 109.124 125.462Z" fill="#FFF0BE"/>
<path id="Vector_51" d="M119.59 123L118.218 123.587L131.413 117.932L124.657 111.176L116.212 119.621L119.59 123Z" fill="#FFF0BE"/>
</g>
<path id="Vector_52" d="M111.274 119.881L112.833 116.243L116.212 119.622L124.657 111.176L117.9 104.42L111.274 119.881V119.881Z" fill="#FFDC9B"/>
<path id="Vector_53" d="M116.212 119.621L112.834 116.243L111.274 119.881L109.229 124.655C109.11 124.931 109.085 125.206 109.125 125.463C109.228 126.139 109.804 126.683 110.496 126.726C110.716 126.74 110.947 126.703 111.178 126.604L118.218 123.587L119.59 122.999L116.212 119.621Z" fill="#D75055"/>
<path id="Vector_54" d="M153.37 82.4632L160.126 75.7072L155.493 71.0743C154.32 69.9017 152.419 69.9017 151.246 71.0743L146.614 75.7072L149.992 79.0852L153.37 82.4632Z" fill="#FFDC9B"/>
</g>
</g>
<g id="svg-coffee" clip-path="url(#clip2_11_531)">
<path id="Vector_55" d="M131.095 462.232C129.314 462.232 127.87 460.788 127.87 459.006C127.87 457.193 127.17 456.418 125.589 454.836C123.829 453.076 121.418 450.666 121.419 446.105C121.418 441.544 123.829 439.133 125.589 437.373C126.849 436.114 128.891 436.114 130.151 437.374C131.41 438.633 131.41 440.675 130.15 441.935C128.569 443.516 127.869 444.292 127.87 446.105C127.869 447.918 128.568 448.693 130.15 450.274C131.91 452.034 134.32 454.445 134.32 459.006C134.32 460.788 132.876 462.232 131.095 462.232Z" fill="#F6E27D"/>
<path id="Vector_56" d="M146.147 462.232C144.366 462.232 142.922 460.788 142.922 459.006C142.922 457.193 142.222 456.418 140.641 454.836C138.881 453.076 136.47 450.666 136.471 446.105C136.47 441.544 138.881 439.133 140.641 437.373C141.901 436.114 143.943 436.114 145.203 437.374C146.462 438.633 146.462 440.675 145.202 441.935C143.621 443.516 142.921 444.292 142.922 446.105C142.921 447.918 143.62 448.693 145.202 450.274C146.962 452.034 149.372 454.445 149.372 459.006C149.372 460.788 147.928 462.232 146.147 462.232Z" fill="#F2D23D"/>
<path id="Vector_57" d="M173.025 480.508C173.025 473.988 167.72 468.682 161.198 468.682H156.898H113.893C112.112 468.682 110.667 470.126 110.667 471.908V482.659C110.667 496.294 121.76 507.387 135.395 507.387C145.598 507.387 154.377 501.175 158.15 492.335H161.198C161.201 492.335 161.204 492.335 161.207 492.335C167.724 492.33 173.025 487.027 173.025 480.508ZM161.199 485.884C161.197 485.884 161.196 485.885 161.194 485.885H159.913C160.051 484.828 160.123 483.752 160.123 482.659V475.133H161.199C164.163 475.133 166.574 477.545 166.574 480.508C166.574 483.473 164.163 485.884 161.199 485.884Z" fill="#DC85A6"/>
<path id="Vector_58" d="M161.199 468.682H156.898H135.396V507.387C145.598 507.387 154.377 501.175 158.151 492.335H161.199C161.202 492.335 161.204 492.335 161.207 492.335C167.724 492.33 173.025 487.027 173.025 480.508C173.025 473.988 167.72 468.682 161.199 468.682ZM161.199 485.884C161.197 485.884 161.196 485.885 161.194 485.885H159.913C160.051 484.828 160.123 483.752 160.123 482.659V475.133H161.199C164.163 475.133 166.574 477.545 166.574 480.508C166.574 483.473 164.163 485.884 161.199 485.884Z" fill="#CE5C82"/>
<path id="Vector_59" d="M159.048 500.936H111.743C109.961 500.936 108.517 502.38 108.517 504.161C108.517 505.943 109.961 507.387 111.743 507.387H159.048C160.83 507.387 162.274 505.943 162.274 504.161C162.274 502.38 160.83 500.936 159.048 500.936Z" fill="#D8145D"/>
<path id="Vector_60" d="M159.048 500.936H135.396V507.387H159.048C160.83 507.387 162.274 505.943 162.274 504.161C162.274 502.38 160.83 500.936 159.048 500.936Z" fill="#A90140"/>
</g>
<g id="svg-mouse" clip-path="url(#clip3_11_531)">
<g id="Group_4">
<path id="Vector_61" d="M364.202 406.377C364.239 405.971 364.29 405.566 364.357 405.161C364.29 405.565 364.239 405.971 364.202 406.377Z" fill="#E4EAF6"/>
<path id="Vector_62" d="M367.134 417.477C366.98 417.255 366.831 417.028 366.687 416.799C366.831 417.028 366.98 417.255 367.134 417.477Z" fill="#E4EAF6"/>
<path id="Vector_63" d="M400.832 372.696C399.926 372.183 398.993 371.765 398.043 371.436C398.993 371.765 399.926 372.183 400.832 372.696Z" fill="#E4EAF6"/>
<path id="Vector_64" d="M364.357 405.16C364.447 404.621 364.563 404.083 364.707 403.548C364.563 404.083 364.447 404.621 364.357 405.16Z" fill="#E4EAF6"/>
<path id="Vector_65" d="M394.741 370.658C394.931 370.683 395.121 370.71 395.311 370.741C395.122 370.71 394.931 370.683 394.741 370.658Z" fill="#E4EAF6"/>
<path id="Vector_66" d="M395.312 370.741C395.852 370.831 396.39 370.947 396.924 371.091C396.389 370.947 395.852 370.831 395.312 370.741Z" fill="#E4EAF6"/>
<path id="Vector_67" d="M400.832 372.696C401.862 373.279 402.805 373.957 403.66 374.709C396.256 372.349 387.964 375.403 383.985 382.434L372.323 403.042C368.344 410.073 369.996 418.754 375.831 423.886C374.746 423.54 373.679 423.081 372.648 422.498C380.71 427.06 390.944 424.224 395.506 416.162L407.169 395.554C411.731 387.492 408.894 377.258 400.832 372.696ZM393.317 389.982C392.78 390.931 391.576 391.264 390.628 390.728C389.679 390.191 389.345 388.987 389.882 388.039L391.826 384.604L391.826 384.604L393.284 382.028C393.82 381.079 395.024 380.746 395.973 381.282C396.091 381.349 396.2 381.427 396.299 381.513C396.398 381.599 396.487 381.694 396.565 381.796C396.643 381.897 396.711 382.006 396.767 382.119C396.936 382.459 397.006 382.845 396.962 383.227C396.932 383.481 396.852 383.735 396.718 383.972L393.317 389.982L393.317 389.982Z" fill="#E4EAF6"/>
<path id="Vector_68" d="M396.924 371.091C397.086 371.135 397.248 371.182 397.41 371.231C397.249 371.182 397.086 371.135 396.924 371.091Z" fill="#E4EAF6"/>
<path id="Vector_69" d="M369.26 419.974C368.862 419.59 368.485 419.189 368.131 418.772C368.485 419.189 368.862 419.59 369.26 419.974Z" fill="#E4EAF6"/>
<path id="Vector_70" d="M366.312 399.64C365.599 400.9 365.067 402.213 364.707 403.548C365.067 402.213 365.599 400.9 366.312 399.64Z" fill="#E4EAF6"/>
<path id="Vector_71" d="M368.131 418.772C367.865 418.46 367.612 418.138 367.371 417.809C367.611 418.138 367.865 418.46 368.131 418.772Z" fill="#E4EAF6"/>
<path id="Vector_72" d="M372.648 422.498C371.389 421.785 370.257 420.934 369.26 419.974C370.257 420.934 371.389 421.785 372.648 422.498Z" fill="#E4EAF6"/>
<path id="Vector_73" d="M364.136 407.595C364.141 407.325 364.152 407.054 364.17 406.783C364.152 407.054 364.141 407.325 364.136 407.595Z" fill="#E4EAF6"/>
<path id="Vector_74" d="M392.877 370.52C393.147 370.525 393.418 370.536 393.689 370.554C393.418 370.536 393.147 370.525 392.877 370.52Z" fill="#E4EAF6"/>
</g>
<path id="Vector_75" d="M372.322 403.042L383.985 382.434C387.964 375.403 396.256 372.349 403.66 374.71C402.805 373.957 401.862 373.279 400.832 372.696C399.926 372.183 398.993 371.765 398.043 371.436C397.833 371.363 397.622 371.295 397.411 371.231C397.249 371.182 397.086 371.135 396.924 371.091C396.39 370.947 395.851 370.831 395.312 370.741C395.122 370.71 394.931 370.683 394.741 370.658C394.526 370.63 394.31 370.605 394.095 370.586C393.96 370.574 393.824 370.563 393.689 370.554C393.418 370.536 393.148 370.525 392.877 370.52C392.336 370.511 391.796 370.528 391.26 370.57C391.126 370.581 390.991 370.593 390.858 370.607C385.64 371.147 380.754 374.12 377.974 379.032L366.312 399.64C365.599 400.9 365.067 402.213 364.707 403.549C364.563 404.083 364.447 404.621 364.357 405.161C364.29 405.566 364.238 405.971 364.202 406.378C364.189 406.513 364.179 406.648 364.17 406.784C364.152 407.054 364.141 407.325 364.136 407.596C364.12 408.542 364.184 409.485 364.325 410.415C364.365 410.68 364.412 410.945 364.465 411.208C364.492 411.339 364.52 411.471 364.549 411.601C364.668 412.125 364.811 412.642 364.979 413.152C365.021 413.279 365.065 413.406 365.11 413.533C365.2 413.786 365.296 414.036 365.398 414.285C365.755 415.155 366.186 415.996 366.687 416.799C366.831 417.028 366.98 417.255 367.134 417.478C367.212 417.589 367.291 417.7 367.371 417.809C367.611 418.139 367.865 418.46 368.131 418.772C368.485 419.189 368.862 419.59 369.26 419.974C370.257 420.934 371.389 421.785 372.648 422.498C373.679 423.081 374.746 423.54 375.831 423.886C369.996 418.754 368.343 410.073 372.322 403.042Z" fill="#D1D9E9"/>
<g id="Group_5">
<path id="Vector_76" d="M396.961 383.227C397.005 382.845 396.936 382.459 396.767 382.119C396.936 382.459 397.005 382.845 396.961 383.227Z" fill="#96A5B9"/>
<path id="Vector_77" d="M396.299 381.513C396.398 381.599 396.487 381.694 396.565 381.796C396.487 381.694 396.398 381.599 396.299 381.513Z" fill="#96A5B9"/>
<path id="Vector_78" d="M396.718 383.972L395.26 386.548C394.723 387.496 393.52 387.83 392.571 387.293C391.623 386.756 391.289 385.552 391.826 384.604L389.882 388.039C389.345 388.987 389.679 390.191 390.627 390.728C391.576 391.264 392.78 390.931 393.317 389.982L396.718 383.972C396.852 383.734 396.932 383.481 396.961 383.227C396.932 383.481 396.852 383.735 396.718 383.972Z" fill="#96A5B9"/>
</g>
<path id="Vector_79" d="M392.571 387.293C393.52 387.83 394.724 387.496 395.26 386.548L396.718 383.972C396.852 383.734 396.932 383.481 396.962 383.227C397.006 382.845 396.936 382.459 396.767 382.119C396.711 382.006 396.643 381.897 396.565 381.796C396.487 381.694 396.398 381.599 396.299 381.513C396.2 381.427 396.091 381.349 395.973 381.282C395.024 380.746 393.82 381.079 393.284 382.028L391.826 384.604L391.826 384.604C391.289 385.552 391.623 386.756 392.571 387.293Z" fill="#AFBBD0"/>
</g>
<g id="svg-plant" clip-path="url(#clip4_11_531)">
<path id="Vector_80" d="M529.453 515.413C529.109 512.315 526.874 509.758 523.851 509.002C522.535 508.674 491.402 501.183 471.076 521.508C469.12 523.464 467.363 525.584 465.805 527.86L465.804 527.859C464.298 525.662 462.555 523.531 460.532 521.509C448.864 509.841 433.591 507.391 422.835 507.391C414.302 507.391 408.021 508.937 407.758 509.002C404.734 509.758 402.499 512.315 402.155 515.413C402.115 515.767 401.204 524.188 402.14 534.486C403.468 549.098 407.74 560.106 414.838 567.203C426.506 578.871 441.779 581.32 452.536 581.32C454.627 581.32 456.583 581.227 458.347 581.086V594.381H465.804H473.26V581.093C475.022 581.233 476.978 581.325 479.078 581.325C490.155 581.325 505.211 578.761 516.77 567.203C523.867 560.106 528.14 549.098 529.468 534.486C530.404 524.188 529.492 515.767 529.453 515.413Z" fill="#B6E892"/>
<path id="Vector_81" d="M508.056 594.381H496.872H473.26H465.804H458.348H434.736H423.552C419.434 594.381 416.096 597.719 416.096 601.837C416.096 605.955 419.434 609.294 423.552 609.294H428.062L434.229 664.796C434.649 668.573 437.841 671.429 441.64 671.429H465.803H489.967C493.767 671.429 496.958 668.573 497.378 664.796L503.544 609.294H508.055C512.172 609.294 515.511 605.955 515.511 601.837C515.512 597.719 512.174 594.381 508.056 594.381Z" fill="#FFB655"/>
<path id="Vector_82" d="M458.348 594.381H434.736H423.552C419.434 594.381 416.096 597.719 416.096 601.837C416.096 605.955 419.434 609.294 423.552 609.294H428.062L434.229 664.796C434.649 668.573 437.841 671.429 441.64 671.429H465.803V594.381H458.348Z" fill="#EE8700"/>
<path id="Vector_83" d="M465.804 527.859C464.298 525.662 462.555 523.531 460.532 521.509C448.864 509.84 433.592 507.391 422.835 507.391C414.302 507.391 408.021 508.937 407.758 509.002C404.734 509.758 402.499 512.315 402.155 515.413C402.115 515.767 401.204 524.188 402.14 534.486C403.468 549.098 407.74 560.106 414.838 567.203C426.506 578.871 441.779 581.32 452.536 581.32C454.627 581.32 456.583 581.227 458.347 581.086V594.381H465.804V527.859Z" fill="#7ED63E"/>
</g>
<g id="svg-smartphone" clip-path="url(#clip5_11_531)">
<path id="Vector_84" d="M234.265 528.347L194.499 557.939C191.754 559.981 191.184 563.863 193.227 566.608L257.342 652.768C259.385 655.513 263.266 656.082 266.012 654.039L305.777 624.448C308.523 622.405 309.092 618.523 307.049 615.778L242.934 529.619C240.892 526.874 237.01 526.304 234.265 528.347ZM212.686 554.702C212.005 553.787 212.195 552.493 213.11 551.812L223.052 544.414C223.967 543.733 225.261 543.923 225.942 544.838C226.622 545.753 226.433 547.047 225.518 547.728L215.576 555.126C214.661 555.807 213.367 555.617 212.686 554.702ZM206.482 556.744C207.397 556.064 208.691 556.253 209.372 557.168C210.053 558.083 209.863 559.378 208.948 560.058C208.033 560.739 206.739 560.55 206.058 559.635C205.378 558.719 205.567 557.425 206.482 556.744ZM283.428 635.93C281.598 637.292 279.011 636.912 277.649 635.082C276.287 633.252 276.666 630.664 278.497 629.302C280.327 627.94 282.914 628.32 284.276 630.15C285.638 631.98 285.259 634.568 283.428 635.93ZM282.775 590.077L297.57 609.96L254.491 642.017L239.695 622.134L202.706 572.427L245.785 540.37L282.775 590.077L282.775 590.077Z" fill="#707384"/>
<path id="Vector_85" d="M239.695 622.134L252.95 612.27C252.269 611.355 252.459 610.061 253.374 609.38C254.289 608.699 255.583 608.889 256.264 609.804L259.578 607.338C258.897 606.423 259.087 605.129 260.002 604.448C260.917 603.767 262.211 603.957 262.892 604.872L266.206 602.406C265.525 601.491 265.715 600.197 266.63 599.516C267.545 598.835 268.839 599.025 269.52 599.94L282.775 590.076L245.786 540.369L202.706 572.427L239.695 622.134ZM238.695 558.518C238.014 557.603 238.204 556.309 239.119 555.628L245.746 550.696C246.661 550.015 247.956 550.205 248.636 551.12L253.568 557.748C254.249 558.663 254.059 559.957 253.144 560.638L246.517 565.569C245.602 566.25 244.308 566.06 243.627 565.145L238.695 558.518ZM248.559 571.773C247.878 570.858 248.068 569.564 248.983 568.883L255.61 563.951C256.525 563.27 257.819 563.46 258.5 564.375L263.432 571.003C264.113 571.918 263.923 573.212 263.008 573.893L256.381 578.825C255.465 579.505 254.171 579.316 253.49 578.401L248.559 571.773ZM258.422 585.028C257.742 584.113 257.931 582.819 258.846 582.138L265.474 577.206C266.389 576.526 267.683 576.715 268.364 577.63L273.296 584.258C273.977 585.173 273.787 586.467 272.872 587.148L266.244 592.08C265.329 592.761 264.035 592.571 263.354 591.656L258.422 585.028ZM225.44 568.382C224.759 567.467 224.949 566.173 225.864 565.492L232.491 560.56C233.406 559.879 234.7 560.069 235.381 560.984L240.313 567.611C240.994 568.526 240.804 569.82 239.889 570.501L233.261 575.433C232.346 576.114 231.052 575.924 230.371 575.009L225.44 568.382ZM235.303 581.637C234.622 580.722 234.812 579.428 235.727 578.747L242.355 573.815C243.27 573.134 244.564 573.324 245.245 574.239L250.177 580.867C250.858 581.782 250.668 583.076 249.753 583.757L243.125 588.688C242.21 589.369 240.916 589.179 240.235 588.264L235.303 581.637ZM245.167 594.892C244.486 593.977 244.676 592.683 245.591 592.002L252.219 587.07C253.134 586.389 254.428 586.579 255.109 587.494L260.041 594.122C260.721 595.037 260.532 596.331 259.617 597.012L252.989 601.944C252.074 602.625 250.78 602.435 250.099 601.52L245.167 594.892ZM212.184 578.245C211.504 577.33 211.693 576.036 212.608 575.355L219.236 570.424C220.151 569.743 221.445 569.933 222.126 570.848L227.058 577.475C227.739 578.39 227.549 579.684 226.634 580.365L220.006 585.297C219.091 585.978 217.797 585.788 217.116 584.873L212.184 578.245ZM222.048 591.501C221.367 590.586 221.557 589.291 222.472 588.611L229.1 583.679C230.015 582.998 231.309 583.188 231.99 584.103L236.922 590.73C237.602 591.645 237.413 592.939 236.498 593.62L229.87 598.552C228.955 599.233 227.661 599.043 226.98 598.128L222.048 591.501ZM231.912 604.756C231.231 603.841 231.421 602.547 232.336 601.866L238.964 596.934C239.879 596.253 241.173 596.443 241.854 597.358L246.785 603.986C247.466 604.901 247.276 606.195 246.361 606.876L239.734 611.807C238.819 612.488 237.525 612.299 236.844 611.383L231.912 604.756Z" fill="#63AFDB"/>
<path id="Vector_86" d="M269.095 602.83C268.18 603.511 266.886 603.322 266.205 602.407L262.892 604.872C263.573 605.787 263.383 607.082 262.468 607.762C261.553 608.443 260.259 608.254 259.578 607.339L256.264 609.804C256.945 610.719 256.755 612.014 255.84 612.694C254.925 613.375 253.631 613.186 252.95 612.271L239.695 622.134L254.49 642.017L297.57 609.96L282.774 590.077L269.519 599.941C270.2 600.855 270.01 602.15 269.095 602.83ZM262.814 625.526C263.495 626.441 263.305 627.735 262.39 628.416L255.763 633.347C254.848 634.028 253.554 633.839 252.873 632.924L247.941 626.296C247.26 625.381 247.45 624.087 248.365 623.406L254.992 618.474C255.907 617.793 257.201 617.983 257.882 618.898L262.814 625.526ZM276.069 615.662C276.75 616.577 276.561 617.871 275.646 618.552L269.018 623.484C268.103 624.165 266.809 623.975 266.128 623.06L261.196 616.432C260.515 615.517 260.705 614.223 261.62 613.542L268.248 608.61C269.163 607.929 270.457 608.119 271.138 609.034L276.069 615.662ZM274.875 603.678L281.503 598.746C282.418 598.065 283.712 598.255 284.393 599.17L289.325 605.798C290.006 606.713 289.816 608.007 288.901 608.688L282.273 613.62C281.358 614.301 280.064 614.111 279.383 613.196L274.451 606.568C273.77 605.653 273.96 604.359 274.875 603.678Z" fill="#468CBE"/>
<g id="Group_6">
<path id="Vector_87" d="M215.576 555.126L225.517 547.729C226.433 547.048 226.622 545.754 225.941 544.838C225.261 543.923 223.966 543.734 223.051 544.415L213.11 551.812C212.195 552.493 212.005 553.787 212.686 554.702C213.367 555.617 214.661 555.807 215.576 555.126Z" fill="#464655"/>
<path id="Vector_88" d="M208.948 560.058C209.863 559.377 210.053 558.083 209.372 557.168C208.691 556.253 207.397 556.063 206.482 556.744C205.567 557.425 205.377 558.719 206.058 559.634C206.739 560.549 208.033 560.739 208.948 560.058Z" fill="#464655"/>
<path id="Vector_89" d="M283.429 635.93C285.259 634.568 285.638 631.98 284.276 630.15C282.914 628.32 280.327 627.94 278.497 629.302C276.666 630.664 276.287 633.252 277.649 635.082C279.011 636.912 281.598 637.292 283.429 635.93Z" fill="#464655"/>
</g>
<path id="Vector_90" d="M268.247 608.61L261.62 613.542C260.705 614.223 260.515 615.517 261.196 616.432L266.128 623.06C266.809 623.975 268.103 624.165 269.018 623.484L275.645 618.552C276.56 617.871 276.75 616.577 276.069 615.662L271.137 609.034C270.457 608.119 269.162 607.929 268.247 608.61ZM271.099 619.361C269.268 620.723 266.681 620.343 265.319 618.513C263.957 616.683 264.336 614.095 266.167 612.733C267.997 611.371 270.584 611.751 271.946 613.581C273.308 615.411 272.929 617.999 271.099 619.361Z" fill="#63AFDB"/>
<path id="Vector_91" d="M279.383 613.196C280.064 614.111 281.358 614.301 282.273 613.62L288.901 608.688C289.816 608.007 290.006 606.713 289.325 605.798L284.393 599.17C283.712 598.255 282.418 598.065 281.503 598.746L274.875 603.678C273.96 604.359 273.77 605.653 274.451 606.568L279.383 613.196Z" fill="#FF6469"/>
<path id="Vector_92" d="M254.992 618.474L248.365 623.406C247.449 624.087 247.26 625.381 247.941 626.296L252.872 632.924C253.553 633.839 254.847 634.028 255.762 633.347L262.39 628.416C263.305 627.735 263.495 626.441 262.814 625.526L257.882 618.898C257.201 617.983 255.907 617.793 254.992 618.474Z" fill="#00DCCD"/>
<path id="Vector_93" d="M252.989 601.944L259.617 597.012C260.532 596.331 260.721 595.037 260.041 594.122L255.109 587.494C254.428 586.579 253.134 586.389 252.219 587.07L245.591 592.002C244.676 592.683 244.486 593.977 245.167 594.892L250.099 601.52C250.78 602.435 252.074 602.625 252.989 601.944Z" fill="#FFDC69"/>
<path id="Vector_94" d="M266.244 592.08L272.872 587.148C273.787 586.467 273.977 585.173 273.296 584.258L268.364 577.63C267.683 576.715 266.389 576.526 265.474 577.206L258.846 582.138C257.931 582.819 257.742 584.113 258.422 585.028L263.354 591.656C264.035 592.571 265.329 592.761 266.244 592.08ZM262.545 587.109C261.864 586.194 262.054 584.9 262.969 584.219L266.283 581.753C267.198 581.072 268.492 581.262 269.173 582.177C269.854 583.092 269.664 584.386 268.749 585.067L265.435 587.533C264.52 588.214 263.226 588.024 262.545 587.109Z" fill="white"/>
<path id="Vector_95" d="M239.734 611.808L246.361 606.876C247.276 606.195 247.466 604.901 246.785 603.986L241.854 597.358C241.173 596.443 239.879 596.253 238.964 596.934L232.336 601.866C231.421 602.547 231.231 603.841 231.912 604.756L236.844 611.384C237.525 612.299 238.819 612.489 239.734 611.808ZM236.035 606.837C235.354 605.922 235.544 604.628 236.459 603.947L239.773 601.481C240.688 600.8 241.982 600.99 242.663 601.905C243.344 602.82 243.154 604.114 242.239 604.795L238.925 607.261C238.01 607.942 236.716 607.752 236.035 606.837Z" fill="#468CBE"/>
<path id="Vector_96" d="M243.125 588.688L249.753 583.757C250.668 583.076 250.858 581.782 250.177 580.867L245.245 574.239C244.564 573.324 243.27 573.134 242.355 573.815L235.727 578.747C234.812 579.428 234.622 580.722 235.303 581.637L240.235 588.264C240.916 589.18 242.21 589.369 243.125 588.688ZM239.426 583.718C238.745 582.803 238.935 581.509 239.85 580.828L243.164 578.362C244.079 577.681 245.373 577.871 246.054 578.786C246.735 579.701 246.545 580.995 245.63 581.676L242.316 584.142C241.401 584.823 240.107 584.633 239.426 583.718Z" fill="#464655"/>
<path id="Vector_97" d="M256.381 578.825L263.008 573.893C263.923 573.212 264.113 571.918 263.432 571.003L258.5 564.375C257.819 563.46 256.525 563.27 255.61 563.951L248.983 568.883C248.068 569.564 247.878 570.858 248.559 571.773L253.491 578.401C254.172 579.316 255.465 579.506 256.381 578.825Z" fill="#FFA055"/>
<path id="Vector_98" d="M229.87 598.552L236.497 593.62C237.412 592.939 237.602 591.645 236.921 590.73L231.99 584.103C231.309 583.188 230.015 582.998 229.099 583.679L222.472 588.611C221.557 589.292 221.367 590.586 222.048 591.501L226.98 598.128C227.661 599.043 228.955 599.233 229.87 598.552ZM227.019 587.802C228.849 586.44 231.437 586.819 232.798 588.65C234.16 590.48 233.781 593.067 231.951 594.429C230.12 595.791 227.533 595.412 226.171 593.581C224.809 591.751 225.189 589.164 227.019 587.802Z" fill="#A0D778"/>
<path id="Vector_99" d="M233.261 575.433L239.889 570.501C240.804 569.821 240.994 568.526 240.313 567.611L235.381 560.984C234.7 560.069 233.406 559.879 232.491 560.56L225.864 565.492C224.949 566.173 224.759 567.467 225.44 568.382L230.371 575.009C231.052 575.924 232.346 576.114 233.261 575.433Z" fill="#FF6469"/>
<path id="Vector_100" d="M246.517 565.569L253.144 560.638C254.059 559.957 254.249 558.663 253.568 557.748L248.636 551.12C247.956 550.205 246.661 550.015 245.746 550.696L239.119 555.628C238.204 556.309 238.014 557.603 238.695 558.518L243.627 565.145C244.308 566.06 245.602 566.25 246.517 565.569ZM243.666 554.819C245.496 553.457 248.083 553.837 249.445 555.667C250.807 557.497 250.428 560.085 248.598 561.446C246.767 562.808 244.18 562.429 242.818 560.599C241.456 558.768 241.835 556.181 243.666 554.819Z" fill="#00DCCD"/>
<g id="Group_7">
<path id="Vector_101" d="M220.006 585.297L226.634 580.365C227.549 579.684 227.739 578.39 227.058 577.475L222.126 570.848C221.445 569.933 220.151 569.743 219.236 570.424L212.608 575.356C211.693 576.036 211.503 577.331 212.184 578.246L217.116 584.873C217.797 585.788 219.091 585.978 220.006 585.297Z" fill="#FFDC69"/>
<path id="Vector_102" d="M231.95 594.429C233.781 593.067 234.16 590.48 232.798 588.65C231.436 586.82 228.849 586.44 227.019 587.802C225.188 589.164 224.809 591.751 226.171 593.582C227.533 595.412 230.12 595.791 231.95 594.429Z" fill="#FFDC69"/>
<path id="Vector_103" d="M271.098 619.361C272.929 617.999 273.308 615.411 271.946 613.581C270.584 611.751 267.997 611.371 266.167 612.733C264.336 614.095 263.957 616.683 265.319 618.513C266.681 620.343 269.268 620.723 271.098 619.361Z" fill="#FFDC69"/>
</g>
<path id="Vector_104" d="M248.598 561.446C250.428 560.085 250.807 557.497 249.446 555.667C248.084 553.837 245.496 553.457 243.666 554.819C241.836 556.181 241.456 558.768 242.818 560.599C244.18 562.429 246.768 562.808 248.598 561.446Z" fill="#FF6469"/>
<path id="Vector_105" d="M242.316 584.142L245.63 581.676C246.545 580.995 246.735 579.701 246.054 578.786C245.373 577.871 244.079 577.681 243.164 578.362L239.85 580.828C238.935 581.509 238.745 582.803 239.426 583.718C240.107 584.633 241.401 584.823 242.316 584.142Z" fill="#468CBE"/>
<path id="Vector_106" d="M265.435 587.533L268.749 585.067C269.664 584.386 269.854 583.092 269.173 582.177C268.492 581.262 267.198 581.072 266.283 581.753L262.969 584.219C262.054 584.9 261.864 586.194 262.545 587.109C263.226 588.024 264.52 588.214 265.435 587.533Z" fill="#FF6469"/>
<path id="Vector_107" d="M238.925 607.261L242.239 604.795C243.154 604.114 243.343 602.82 242.663 601.905C241.982 600.99 240.688 600.8 239.773 601.481L236.459 603.947C235.544 604.628 235.354 605.922 236.035 606.837C236.716 607.752 238.01 607.942 238.925 607.261Z" fill="white"/>
<path id="Vector_108" d="M255.84 612.694C256.755 612.013 256.945 610.719 256.264 609.804C255.583 608.889 254.289 608.699 253.374 609.38C252.459 610.061 252.269 611.355 252.95 612.27C253.631 613.185 254.925 613.375 255.84 612.694Z" fill="#464655"/>
<g id="Group_8">
<path id="Vector_109" d="M262.468 607.762C263.383 607.081 263.573 605.787 262.892 604.872C262.211 603.957 260.917 603.767 260.002 604.448C259.087 605.129 258.897 606.423 259.578 607.338C260.259 608.254 261.553 608.443 262.468 607.762Z" fill="white"/>
<path id="Vector_110" d="M269.095 602.831C270.011 602.15 270.2 600.856 269.519 599.94C268.838 599.025 267.545 598.836 266.629 599.517C265.714 600.198 265.524 601.491 266.205 602.407C266.886 603.322 268.18 603.511 269.095 602.831Z" fill="white"/>
</g>
</g>
<g id="svg-ide" clip-path="url(#clip6_11_531)">
<path id="Vector_111" d="M669.758 63.1569H455.648C448.826 63.1569 443.296 68.6874 443.296 75.5095V231.974C443.296 238.796 448.826 244.327 455.648 244.327H669.758C676.58 244.327 682.111 238.796 682.111 231.974V75.5095C682.111 68.6874 676.58 63.1569 669.758 63.1569ZM649.171 71.3918H653.288C655.562 71.3918 657.406 73.2356 657.406 75.5095C657.406 77.7833 655.562 79.6272 653.288 79.6272H649.171C646.897 79.6272 645.053 77.7833 645.053 75.5095C645.053 73.2356 646.897 71.3918 649.171 71.3918ZM533.881 71.3918H632.701C634.975 71.3918 636.818 73.2356 636.818 75.5095C636.818 77.7833 634.975 79.6272 632.701 79.6272H533.881C531.607 79.6272 529.763 77.7833 529.763 75.5095C529.763 73.2356 531.607 71.3918 533.881 71.3918ZM513.293 71.3918H517.411C519.685 71.3918 521.529 73.2356 521.529 75.5095C521.529 77.7833 519.685 79.6272 517.411 79.6272H513.293C511.019 79.6272 509.175 77.7833 509.175 75.5095C509.175 73.2356 511.019 71.3918 513.293 71.3918ZM496.823 71.3918H500.941C503.215 71.3918 505.059 73.2356 505.059 75.5095C505.059 77.7833 503.215 79.6272 500.941 79.6272H496.823C494.549 79.6272 492.706 77.7833 492.706 75.5095C492.706 73.2356 494.549 71.3918 496.823 71.3918ZM480.353 71.3918C482.627 71.3918 484.471 73.2356 484.471 75.5095C484.471 77.7833 482.627 79.6272 480.353 79.6272C478.079 79.6272 476.235 77.7833 476.235 75.5095C476.236 73.2356 478.079 71.3918 480.353 71.3918ZM468.001 71.3918C470.275 71.3918 472.119 73.2356 472.119 75.5095C472.119 77.7833 470.275 79.6272 468.001 79.6272C465.727 79.6272 463.883 77.7833 463.883 75.5095C463.883 73.2356 465.727 71.3918 468.001 71.3918ZM455.648 71.3918C457.922 71.3918 459.766 73.2356 459.766 75.5095C459.766 77.7833 457.922 79.6272 455.648 79.6272C453.374 79.6272 451.531 77.7833 451.531 75.5095C451.531 73.2356 453.374 71.3918 455.648 71.3918ZM673.876 112.567V231.974C673.876 234.248 672.032 236.092 669.758 236.092H562.703H455.648C453.374 236.092 451.531 234.248 451.531 231.974V112.567V91.9793C451.531 89.7054 453.374 87.8616 455.648 87.8616H562.703H669.758C672.032 87.8616 673.876 89.7054 673.876 91.9793V112.567ZM669.758 79.6267H665.64C663.367 79.6267 661.523 77.7829 661.523 75.509C661.523 73.2351 663.367 71.3913 665.64 71.3913H669.758C672.032 71.3913 673.876 73.2351 673.876 75.509C673.876 77.7833 672.032 79.6267 669.758 79.6267Z" fill="#D2DCF0"/>
<path id="Vector_112" d="M562.703 236.092H669.758C672.032 236.092 673.876 234.248 673.876 231.974V112.567H562.703V236.092ZM624.466 133.154V129.037C624.466 126.763 626.31 124.919 628.583 124.919H657.406C659.68 124.919 661.524 126.763 661.524 129.037V133.154V166.095C661.524 168.368 659.68 170.212 657.406 170.212H628.583C626.31 170.212 624.466 168.368 624.466 166.095V133.154ZM575.056 133.154V129.037C575.056 126.763 576.9 124.919 579.173 124.919H607.996C610.27 124.919 612.114 126.763 612.114 129.037V133.154V166.095C612.114 168.368 610.27 170.212 607.996 170.212H579.173C576.899 170.212 575.055 168.368 575.055 166.095V133.154H575.056ZM579.173 182.564H583.291H657.406C659.68 182.564 661.524 184.408 661.524 186.682V219.622C661.524 221.896 659.68 223.74 657.406 223.74H583.291H579.173C576.899 223.74 575.055 221.896 575.055 219.622V186.682C575.056 184.408 576.899 182.564 579.173 182.564Z" fill="white"/>
<path id="Vector_113" d="M455.648 79.6272C457.922 79.6272 459.766 77.7836 459.766 75.5095C459.766 73.2353 457.922 71.3918 455.648 71.3918C453.374 71.3918 451.531 73.2353 451.531 75.5095C451.531 77.7836 453.374 79.6272 455.648 79.6272Z" fill="#FF6469"/>
<path id="Vector_114" d="M468.001 79.6272C470.275 79.6272 472.119 77.7836 472.119 75.5095C472.119 73.2353 470.275 71.3918 468.001 71.3918C465.727 71.3918 463.883 73.2353 463.883 75.5095C463.883 77.7836 465.727 79.6272 468.001 79.6272Z" fill="#FFE169"/>
<path id="Vector_115" d="M480.353 79.6272C482.627 79.6272 484.471 77.7836 484.471 75.5095C484.471 73.2353 482.627 71.3918 480.353 71.3918C478.079 71.3918 476.235 73.2353 476.235 75.5095C476.235 77.7836 478.079 79.6272 480.353 79.6272Z" fill="#87E1AA"/>
<g id="Group_9">
<path id="Vector_116" d="M496.823 79.6267H500.941C503.215 79.6267 505.059 77.7829 505.059 75.509C505.059 73.2351 503.215 71.3913 500.941 71.3913H496.823C494.549 71.3913 492.706 73.2351 492.706 75.509C492.706 77.7833 494.549 79.6267 496.823 79.6267Z" fill="#E4EAF6"/>
<path id="Vector_117" d="M513.293 79.6267H517.411C519.685 79.6267 521.528 77.7829 521.528 75.509C521.528 73.2351 519.685 71.3913 517.411 71.3913H513.293C511.019 71.3913 509.175 73.2351 509.175 75.509C509.175 77.7833 511.019 79.6267 513.293 79.6267Z" fill="#E4EAF6"/>
<path id="Vector_118" d="M649.17 79.6267H653.288C655.562 79.6267 657.406 77.7829 657.406 75.509C657.406 73.2351 655.562 71.3913 653.288 71.3913H649.17C646.897 71.3913 645.053 73.2351 645.053 75.509C645.053 77.7833 646.897 79.6267 649.17 79.6267Z" fill="#E4EAF6"/>
<path id="Vector_119" d="M669.758 71.3918H665.64C663.367 71.3918 661.523 73.2356 661.523 75.5095C661.523 77.7834 663.367 79.6272 665.64 79.6272H669.758C672.032 79.6272 673.876 77.7834 673.876 75.5095C673.876 73.2356 672.032 71.3918 669.758 71.3918Z" fill="#E4EAF6"/>
<path id="Vector_120" d="M533.881 79.6267H632.701C634.975 79.6267 636.818 77.7829 636.818 75.509C636.818 73.2351 634.975 71.3913 632.701 71.3913H533.881C531.607 71.3913 529.763 73.2351 529.763 75.509C529.763 77.7833 531.607 79.6267 533.881 79.6267Z" fill="#E4EAF6"/>
</g>
<path id="Vector_121" d="M669.758 87.8621H562.703V112.567H673.876V91.9798C673.876 89.7055 672.032 87.8621 669.758 87.8621ZM591.526 104.332H575.056C572.782 104.332 570.938 102.488 570.938 100.214C570.938 97.9404 572.782 96.0966 575.056 96.0966H591.526C593.799 96.0966 595.643 97.9404 595.643 100.214C595.643 102.488 593.799 104.332 591.526 104.332ZM624.466 104.332H607.996C605.722 104.332 603.878 102.488 603.878 100.214C603.878 97.9404 605.722 96.0966 607.996 96.0966H624.466C626.74 96.0966 628.583 97.9404 628.583 100.214C628.583 102.488 626.74 104.332 624.466 104.332ZM657.405 104.332H640.936C638.662 104.332 636.818 102.488 636.818 100.214C636.818 97.9404 638.662 96.0966 640.936 96.0966H657.405C659.679 96.0966 661.523 97.9404 661.523 100.214C661.523 102.488 659.68 104.332 657.405 104.332Z" fill="#FF6469"/>
<g id="Group_10">
<path id="Vector_122" d="M591.526 96.097H575.056C572.782 96.097 570.938 97.9409 570.938 100.215C570.938 102.489 572.782 104.332 575.056 104.332H591.526C593.799 104.332 595.643 102.489 595.643 100.215C595.643 97.9409 593.799 96.097 591.526 96.097Z" fill="#D2555F"/>
<path id="Vector_123" d="M624.466 96.097H607.996C605.722 96.097 603.878 97.9409 603.878 100.215C603.878 102.489 605.722 104.332 607.996 104.332H624.466C626.74 104.332 628.583 102.489 628.583 100.215C628.583 97.9409 626.74 96.097 624.466 96.097Z" fill="#D2555F"/>
<path id="Vector_124" d="M657.405 96.097H640.936C638.662 96.097 636.818 97.9409 636.818 100.215C636.818 102.489 638.662 104.332 640.936 104.332H657.405C659.679 104.332 661.523 102.489 661.523 100.215C661.523 97.9409 659.68 96.097 657.405 96.097Z" fill="#D2555F"/>
</g>
<g id="Group_11">
<path id="Vector_125" d="M579.173 170.212H607.996C610.269 170.212 612.113 168.368 612.113 166.094V133.154C612.113 135.428 610.269 137.272 607.996 137.272H579.173C576.899 137.272 575.055 135.428 575.055 133.154V166.094C575.056 168.368 576.899 170.212 579.173 170.212Z" fill="#DEE3ED"/>
<path id="Vector_126" d="M628.583 170.212H657.405C659.679 170.212 661.523 168.368 661.523 166.094V133.154C661.523 135.428 659.679 137.272 657.405 137.272H628.583C626.309 137.272 624.465 135.428 624.465 133.154V166.094C624.466 168.368 626.309 170.212 628.583 170.212Z" fill="#DEE3ED"/>
</g>
<path id="Vector_127" d="M579.173 137.272H607.996C610.269 137.272 612.113 135.428 612.113 133.154V129.037C612.113 126.763 610.269 124.919 607.996 124.919H579.173C576.899 124.919 575.055 126.763 575.055 129.037V133.154C575.056 135.428 576.899 137.272 579.173 137.272Z" fill="#FF969B"/>
<path id="Vector_128" d="M628.583 137.272H657.405C659.679 137.272 661.523 135.428 661.523 133.154V129.037C661.523 126.763 659.679 124.919 657.405 124.919H628.583C626.309 124.919 624.465 126.763 624.465 129.037V133.154C624.466 135.428 626.309 137.272 628.583 137.272Z" fill="#A0DCF0"/>
<path id="Vector_129" d="M587.408 186.682V219.622C587.408 221.896 585.565 223.74 583.291 223.74H657.406C659.68 223.74 661.524 221.896 661.524 219.622V186.682C661.524 184.408 659.68 182.564 657.406 182.564H583.291C585.565 182.564 587.408 184.408 587.408 186.682Z" fill="#DEE3ED"/>
<path id="Vector_130" d="M579.173 223.739H583.291C585.565 223.739 587.409 221.896 587.409 219.622V186.682C587.409 184.408 585.565 182.564 583.291 182.564H579.173C576.899 182.564 575.055 184.408 575.055 186.682V219.622C575.056 221.896 576.899 223.739 579.173 223.739Z" fill="#91E6BE"/>
<path id="Vector_131" d="M562.703 87.8621H455.648C453.374 87.8621 451.531 89.7059 451.531 91.9798V112.567V231.975C451.531 234.249 453.374 236.093 455.648 236.093H562.703V112.567V87.8621ZM484.471 100.214H550.351C552.624 100.214 554.468 102.058 554.468 104.332C554.468 106.606 552.624 108.45 550.351 108.45H484.471C482.197 108.45 480.353 106.606 480.353 104.332C480.353 102.058 482.197 100.214 484.471 100.214ZM463.883 100.214H468.001C470.275 100.214 472.119 102.058 472.119 104.332C472.119 106.606 470.275 108.45 468.001 108.45H463.883C461.609 108.45 459.765 106.606 459.765 104.332C459.765 102.058 461.609 100.214 463.883 100.214ZM505.058 124.92H492.706C490.432 124.92 488.588 123.076 488.588 120.802C488.588 118.528 490.432 116.684 492.706 116.684H505.058C507.332 116.684 509.176 118.528 509.176 120.802C509.175 123.076 507.332 124.92 505.058 124.92ZM509.175 137.272C509.175 139.546 507.332 141.39 505.058 141.39H492.705C490.431 141.39 488.587 139.546 488.587 137.272C488.587 134.998 490.431 133.154 492.705 133.154H505.058C507.332 133.154 509.175 134.998 509.175 137.272ZM463.883 166.095H468.001C470.275 166.095 472.119 167.938 472.119 170.212C472.119 172.486 470.275 174.33 468.001 174.33H463.883C461.609 174.33 459.765 172.486 459.765 170.212C459.765 167.938 461.609 166.095 463.883 166.095ZM459.765 153.742C459.765 151.468 461.609 149.624 463.883 149.624H468.001C470.275 149.624 472.119 151.468 472.119 153.742C472.119 156.016 470.275 157.86 468.001 157.86H463.883C461.609 157.86 459.765 156.016 459.765 153.742ZM472.118 182.564H476.236C478.51 182.564 480.353 184.408 480.353 186.682C480.353 188.956 478.51 190.8 476.236 190.8H472.118C469.844 190.8 468 188.956 468 186.682C468 184.408 469.844 182.564 472.118 182.564ZM476.236 141.389H472.118C469.844 141.389 468 139.546 468 137.272C468 134.998 469.844 133.154 472.118 133.154H476.236C478.51 133.154 480.353 134.998 480.353 137.272C480.353 139.546 478.51 141.389 476.236 141.389ZM476.236 124.92H472.118C469.844 124.92 468 123.076 468 120.802C468 118.528 469.844 116.684 472.118 116.684H476.236C478.51 116.684 480.353 118.528 480.353 120.802C480.353 123.076 478.51 124.92 476.236 124.92ZM468.001 223.74H463.883C461.609 223.74 459.765 221.896 459.765 219.622C459.765 217.348 461.609 215.504 463.883 215.504H468.001C470.275 215.504 472.119 217.348 472.119 219.622C472.118 221.896 470.275 223.74 468.001 223.74ZM476.236 207.27H472.118C469.844 207.27 468 205.426 468 203.152C468 200.878 469.844 199.034 472.118 199.034H476.236C478.51 199.034 480.353 200.878 480.353 203.152C480.353 205.426 478.51 207.27 476.236 207.27ZM550.351 223.74H484.471C482.197 223.74 480.353 221.896 480.353 219.622C480.353 217.348 482.197 215.504 484.471 215.504H550.351C552.624 215.504 554.468 217.348 554.468 219.622C554.468 221.896 552.624 223.74 550.351 223.74ZM492.706 199.034H505.058C507.332 199.034 509.176 200.878 509.176 203.152C509.176 205.426 507.332 207.27 505.058 207.27H492.706C490.432 207.27 488.588 205.426 488.588 203.152C488.588 200.878 490.432 199.034 492.706 199.034ZM488.588 186.682C488.588 184.408 490.432 182.564 492.706 182.564H505.058C507.332 182.564 509.176 184.408 509.176 186.682C509.176 188.956 507.332 190.8 505.058 190.8H492.706C490.432 190.799 488.588 188.956 488.588 186.682ZM550.351 207.27H521.528C519.254 207.27 517.41 205.426 517.41 203.152C517.41 200.878 519.254 199.034 521.528 199.034H550.351C552.624 199.034 554.468 200.878 554.468 203.152C554.468 205.426 552.624 207.27 550.351 207.27ZM550.351 190.799H521.528C519.254 190.799 517.41 188.956 517.41 186.682C517.41 184.408 519.254 182.564 521.528 182.564H550.351C552.624 182.564 554.468 184.408 554.468 186.682C554.468 188.956 552.624 190.799 550.351 190.799ZM550.351 174.33H484.471C482.197 174.33 480.353 172.486 480.353 170.212C480.353 167.938 482.197 166.094 484.471 166.094H550.351C552.624 166.094 554.468 167.938 554.468 170.212C554.468 172.486 552.624 174.33 550.351 174.33ZM550.351 157.86H484.471C482.197 157.86 480.353 156.016 480.353 153.742C480.353 151.468 482.197 149.624 484.471 149.624H550.351C552.624 149.624 554.468 151.468 554.468 153.742C554.468 156.016 552.624 157.86 550.351 157.86ZM550.351 141.389H521.528C519.254 141.389 517.41 139.546 517.41 137.272C517.41 134.998 519.254 133.154 521.528 133.154H550.351C552.624 133.154 554.468 134.998 554.468 137.272C554.468 139.546 552.624 141.389 550.351 141.389ZM550.351 124.92H521.528C519.254 124.92 517.41 123.076 517.41 120.802C517.41 118.528 519.254 116.684 521.528 116.684H550.351C552.624 116.684 554.468 118.528 554.468 120.802C554.468 123.076 552.624 124.92 550.351 124.92Z" fill="#464655"/>
<path id="Vector_132" d="M484.471 108.45H550.351C552.624 108.45 554.468 106.606 554.468 104.332C554.468 102.058 552.624 100.214 550.351 100.214H484.471C482.197 100.214 480.353 102.058 480.353 104.332C480.353 106.606 482.197 108.45 484.471 108.45Z" fill="#FFE169"/>
<g id="Group_12">
<path id="Vector_133" d="M505.058 116.685H492.706C490.432 116.685 488.588 118.528 488.588 120.802C488.588 123.076 490.432 124.92 492.706 124.92H505.058C507.332 124.92 509.176 123.076 509.176 120.802C509.175 118.528 507.332 116.685 505.058 116.685Z" fill="#91E6BE"/>
<path id="Vector_134" d="M505.058 133.154H492.706C490.432 133.154 488.588 134.998 488.588 137.272C488.588 139.546 490.432 141.39 492.706 141.39H505.058C507.332 141.39 509.176 139.546 509.176 137.272C509.176 134.998 507.332 133.154 505.058 133.154Z" fill="#91E6BE"/>
</g>
<path id="Vector_135" d="M550.351 149.624H484.471C482.197 149.624 480.353 151.468 480.353 153.742C480.353 156.016 482.197 157.86 484.471 157.86H550.351C552.624 157.86 554.468 156.016 554.468 153.742C554.468 151.468 552.624 149.624 550.351 149.624Z" fill="#FFE169"/>
<g id="Group_13">
<path id="Vector_136" d="M550.351 166.095H484.471C482.197 166.095 480.353 167.938 480.353 170.212C480.353 172.486 482.197 174.33 484.471 174.33H550.351C552.624 174.33 554.468 172.486 554.468 170.212C554.468 167.938 552.624 166.095 550.351 166.095Z" fill="white"/>
<path id="Vector_137" d="M550.351 116.685H521.528C519.254 116.685 517.41 118.528 517.41 120.802C517.41 123.076 519.254 124.92 521.528 124.92H550.351C552.624 124.92 554.468 123.076 554.468 120.802C554.468 118.528 552.624 116.685 550.351 116.685Z" fill="white"/>
<path id="Vector_138" d="M550.351 133.154H521.528C519.254 133.154 517.41 134.998 517.41 137.272C517.41 139.546 519.254 141.39 521.528 141.39H550.351C552.624 141.39 554.468 139.546 554.468 137.272C554.468 134.998 552.624 133.154 550.351 133.154Z" fill="white"/>
<path id="Vector_139" d="M550.351 182.564H521.528C519.254 182.564 517.41 184.408 517.41 186.682C517.41 188.956 519.254 190.8 521.528 190.8H550.351C552.624 190.8 554.468 188.956 554.468 186.682C554.468 184.408 552.624 182.564 550.351 182.564Z" fill="white"/>
<path id="Vector_140" d="M550.351 199.034H521.528C519.254 199.034 517.41 200.878 517.41 203.152C517.41 205.426 519.254 207.27 521.528 207.27H550.351C552.624 207.27 554.468 205.426 554.468 203.152C554.468 200.878 552.624 199.034 550.351 199.034Z" fill="white"/>
</g>
<g id="Group_14">
<path id="Vector_141" d="M492.706 190.799H505.058C507.332 190.799 509.176 188.955 509.176 186.682C509.176 184.408 507.332 182.564 505.058 182.564H492.706C490.432 182.564 488.588 184.408 488.588 186.682C488.588 188.955 490.432 190.799 492.706 190.799Z" fill="#91E6BE"/>
<path id="Vector_142" d="M492.706 207.27H505.058C507.332 207.27 509.176 205.426 509.176 203.152C509.176 200.878 507.332 199.034 505.058 199.034H492.706C490.432 199.034 488.588 200.878 488.588 203.152C488.588 205.426 490.432 207.27 492.706 207.27Z" fill="#91E6BE"/>
</g>
<path id="Vector_143" d="M550.351 215.505H484.471C482.197 215.505 480.353 217.348 480.353 219.622C480.353 221.896 482.197 223.74 484.471 223.74H550.351C552.624 223.74 554.468 221.896 554.468 219.622C554.468 217.348 552.624 215.505 550.351 215.505Z" fill="#FFE169"/>
<g id="Group_15">
<path id="Vector_144" d="M463.883 108.45H468.001C470.275 108.45 472.118 106.606 472.118 104.332C472.118 102.058 470.275 100.214 468.001 100.214H463.883C461.609 100.214 459.765 102.058 459.765 104.332C459.765 106.606 461.609 108.45 463.883 108.45Z" fill="#FF6469"/>
<path id="Vector_145" d="M476.236 116.685H472.118C469.844 116.685 468 118.528 468 120.802C468 123.076 469.844 124.92 472.118 124.92H476.236C478.51 124.92 480.353 123.076 480.353 120.802C480.353 118.528 478.51 116.685 476.236 116.685Z" fill="#FF6469"/>
<path id="Vector_146" d="M476.236 133.154H472.118C469.844 133.154 468 134.998 468 137.272C468 139.546 469.844 141.39 472.118 141.39H476.236C478.51 141.39 480.353 139.546 480.353 137.272C480.353 134.998 478.51 133.154 476.236 133.154Z" fill="#FF6469"/>
<path id="Vector_147" d="M463.883 157.86H468.001C470.275 157.86 472.118 156.016 472.118 153.742C472.118 151.468 470.275 149.624 468.001 149.624H463.883C461.609 149.624 459.765 151.468 459.765 153.742C459.765 156.016 461.609 157.86 463.883 157.86Z" fill="#FF6469"/>
<path id="Vector_148" d="M463.883 174.329H468.001C470.275 174.329 472.118 172.486 472.118 170.212C472.118 167.938 470.275 166.094 468.001 166.094H463.883C461.609 166.094 459.765 167.938 459.765 170.212C459.765 172.486 461.609 174.329 463.883 174.329Z" fill="#FF6469"/>
<path id="Vector_149" d="M472.118 190.799H476.236C478.51 190.799 480.353 188.955 480.353 186.682C480.353 184.408 478.51 182.564 476.236 182.564H472.118C469.844 182.564 468 184.408 468 186.682C468 188.955 469.844 190.799 472.118 190.799Z" fill="#FF6469"/>
<path id="Vector_150" d="M476.236 199.034H472.118C469.844 199.034 468 200.878 468 203.152C468 205.426 469.844 207.27 472.118 207.27H476.236C478.51 207.27 480.353 205.426 480.353 203.152C480.353 200.878 478.51 199.034 476.236 199.034Z" fill="#FF6469"/>
<path id="Vector_151" d="M468.001 215.505H463.883C461.609 215.505 459.765 217.348 459.765 219.622C459.765 221.896 461.609 223.74 463.883 223.74H468.001C470.275 223.74 472.118 221.896 472.118 219.622C472.118 217.348 470.275 215.505 468.001 215.505Z" fill="#FF6469"/>
</g>
</g>
</g>
<defs>
<clipPath id="clip0_11_531">
<rect width="228.133" height="223.555" fill="white" transform="translate(142.503 221.059) rotate(-19.6872)"/>
</clipPath>
<clipPath id="clip1_11_531">
<rect width="153.36" height="153.36" fill="white"/>
</clipPath>
<clipPath id="clip2_11_531">
<rect width="70.9578" height="70.9578" fill="white" transform="translate(105.292 436.429)"/>
</clipPath>
<clipPath id="clip3_11_531">
<rect width="57.2241" height="57.2241" fill="white" transform="translate(375.931 358.604) rotate(29.5057)"/>
</clipPath>
<clipPath id="clip4_11_531">
<rect width="164.042" height="164.042" fill="white" transform="translate(383.783 507.387)"/>
</clipPath>
<clipPath id="clip5_11_531">
<rect width="119.789" height="119.789" fill="white" transform="translate(166.331 578.899) rotate(-36.6545)"/>
</clipPath>
<clipPath id="clip6_11_531">
<rect width="238.815" height="238.815" fill="white" transform="translate(443.296 34.3344)"/>
</clipPath>
</defs>
</svg>
