<svg width="80" height="80" viewBox="0 0 80 80" fill="none" xmlns="http://www.w3.org/2000/svg">
<g id="linkedin-logo-svg">
<g id="Group">
<path id="Vector" d="M80 0H0V80H80V0Z" fill="#0084B1"/>
<g id="Group_2">
<path id="Vector_2" d="M18.8278 12.1501C22.4919 12.1531 25.5138 15.1795 25.5059 18.8618C25.4972 22.7176 22.2974 25.6237 18.7827 25.54C15.2178 25.6121 12.0849 22.6346 12.0856 18.8364C12.0856 15.1526 15.1193 12.1473 18.8278 12.1501Z" fill="white"/>
<path id="Vector_3" d="M22.7206 67.842H14.8702C13.8513 67.842 13.0254 67.016 13.0254 65.9972V32.5069C13.0254 31.488 13.8513 30.6621 14.8702 30.6621H22.7206C23.7394 30.6621 24.5654 31.488 24.5654 32.5069V65.9974C24.5652 67.016 23.7394 67.842 22.7206 67.842Z" fill="white"/>
<path id="Vector_4" d="M67.9144 42.4254C67.9144 35.4044 62.2228 29.7126 55.2017 29.7126H53.1882C49.347 29.7126 45.9534 31.6292 43.9122 34.5586C43.6896 34.8779 43.4835 35.2095 43.2943 35.5519C43.2288 35.542 43.19 35.5369 43.1892 35.5387V31.4278C43.1892 31.005 42.8463 30.6619 42.4233 30.6619H32.6289C32.206 30.6619 31.863 31.0048 31.863 31.4278V67.0764C31.863 67.4993 32.2057 67.8421 32.6285 67.8423L42.6364 67.8448C43.0594 67.8449 43.4024 67.5019 43.4024 67.0789V46.4837C43.4024 42.9237 46.2418 39.9678 49.8017 39.9276C51.6189 39.9071 53.2663 40.6352 54.4537 41.8233C55.6254 42.9943 56.3499 44.6135 56.3499 46.4012V67.0815C56.3499 67.5044 56.6927 67.8472 57.1154 67.8474L67.148 67.8499C67.5711 67.85 67.9141 67.507 67.9141 67.084V42.4254H67.9144Z" fill="white"/>
</g>
</g>
</g>
</svg>
