<svg width="683" height="768" viewBox="0 0 683 768" fill="none" xmlns="http://www.w3.org/2000/svg">
<g id="landing-svgs">
<g id="svg-laptop-1" clip-path="url(#clip0_11_531)">
<path id="Vector" d="M330.865 332.416L394.59 309.615L359.71 212.13C358.586 208.987 355.127 207.351 351.984 208.476L199.497 263.035C196.355 264.16 194.719 267.619 195.843 270.761L230.724 368.247L294.449 345.445L330.865 332.416ZM212.683 289.125L206.168 270.917L351.828 218.8L358.342 237.008L382.229 303.769L236.57 355.885L212.683 289.125Z" fill="#464655"/>
<path id="Vector_2" d="M358.342 237.008L212.683 289.125L236.57 355.886L382.229 303.769L358.342 237.008ZM290.941 278.239L305.056 317.689C305.656 319.365 304.783 321.21 303.107 321.809L245.451 342.439C243.775 343.039 241.93 342.166 241.33 340.49L227.215 301.041L226.129 298.006C225.53 296.33 226.402 294.485 228.078 293.885L285.735 273.256C287.411 272.656 289.256 273.529 289.855 275.205L290.941 278.239ZM321.287 267.382L335.402 306.831C336.002 308.507 335.129 310.352 333.453 310.952L315.246 317.466C313.57 318.066 311.725 317.193 311.125 315.518L297.01 276.068L295.924 273.033C295.325 271.357 296.197 269.512 297.873 268.913L316.081 262.398C317.757 261.798 319.602 262.671 320.201 264.347L321.287 267.382ZM354.667 255.438L368.782 294.888C369.382 296.564 368.509 298.409 366.833 299.008L348.626 305.523C346.95 306.123 345.105 305.25 344.505 303.574L330.39 264.125L329.304 261.09C328.705 259.414 329.577 257.569 331.253 256.969L349.461 250.455C351.137 249.855 352.982 250.728 353.581 252.404L354.667 255.438Z" fill="white"/>
<path id="Vector_3" d="M351.828 218.801L206.168 270.918L212.683 289.125L358.342 237.008L351.828 218.801ZM249.961 268.941L219.615 279.799C217.939 280.398 216.094 279.526 215.495 277.85C214.895 276.174 215.768 274.329 217.444 273.729L247.789 262.871C249.465 262.272 251.31 263.145 251.91 264.82C252.51 266.496 251.637 268.341 249.961 268.941ZM274.237 260.255L262.099 264.598C260.423 265.197 258.578 264.325 257.979 262.649C257.379 260.973 258.252 259.128 259.928 258.528L272.066 254.185C273.741 253.586 275.587 254.458 276.186 256.134C276.786 257.81 275.913 259.655 274.237 260.255ZM298.514 251.569L286.376 255.912C284.7 256.511 282.855 255.639 282.255 253.963C281.656 252.287 282.528 250.442 284.204 249.842L296.342 245.499C298.018 244.9 299.863 245.772 300.463 247.448C301.062 249.124 300.19 250.969 298.514 251.569ZM322.791 242.882L310.652 247.225C308.977 247.825 307.132 246.952 306.532 245.277C305.932 243.601 306.805 241.756 308.481 241.156L320.619 236.813C322.295 236.213 324.14 237.086 324.739 238.762C325.339 240.438 324.466 242.283 322.791 242.882ZM347.067 234.196L334.929 238.539C333.253 239.139 331.408 238.266 330.808 236.59C330.209 234.915 331.081 233.07 332.757 232.47L344.895 228.127C346.571 227.527 348.416 228.4 349.016 230.076C349.615 231.752 348.743 233.597 347.067 234.196Z" fill="#FF6469"/>
<path id="Vector_4" d="M247.789 262.872L217.444 273.729C215.768 274.329 214.895 276.174 215.495 277.85C216.094 279.526 217.939 280.399 219.615 279.799L249.961 268.941C251.637 268.342 252.51 266.496 251.91 264.821C251.31 263.145 249.465 262.272 247.789 262.872Z" fill="#FFDC69"/>
<g id="Group">
<path id="Vector_5" d="M272.066 254.186L259.928 258.529C258.252 259.128 257.379 260.973 257.979 262.649C258.578 264.325 260.424 265.198 262.099 264.598L274.238 260.255C275.913 259.656 276.786 257.81 276.186 256.135C275.587 254.459 273.742 253.586 272.066 254.186Z" fill="#D2555F"/>
<path id="Vector_6" d="M296.343 245.499L284.204 249.843C282.529 250.442 281.656 252.287 282.255 253.963C282.855 255.639 284.7 256.512 286.376 255.912L298.514 251.569C300.19 250.969 301.063 249.124 300.463 247.448C299.863 245.773 298.018 244.9 296.343 245.499Z" fill="#D2555F"/>
<path id="Vector_7" d="M320.619 236.813L308.481 241.156C306.805 241.756 305.932 243.601 306.532 245.277C307.132 246.953 308.977 247.825 310.653 247.226L322.791 242.883C324.467 242.283 325.339 240.438 324.74 238.762C324.14 237.086 322.295 236.214 320.619 236.813Z" fill="#D2555F"/>
<path id="Vector_8" d="M344.896 228.127L332.757 232.47C331.082 233.07 330.209 234.915 330.808 236.591C331.408 238.267 333.253 239.139 334.929 238.54L347.067 234.197C348.743 233.597 349.616 231.752 349.016 230.076C348.416 228.4 346.571 227.528 344.896 228.127Z" fill="#D2555F"/>
</g>
<g id="Group_2">
<path id="Vector_9" d="M288.993 282.36L231.336 302.99C229.66 303.589 227.815 302.716 227.215 301.041L241.33 340.49C241.93 342.166 243.775 343.039 245.451 342.439L303.108 321.809C304.783 321.21 305.656 319.365 305.057 317.689L290.941 278.239C291.541 279.915 290.668 281.76 288.993 282.36Z" fill="#DEE3ED"/>
<path id="Vector_10" d="M319.338 271.502L301.131 278.017C299.455 278.616 297.61 277.744 297.01 276.068L311.125 315.517C311.725 317.193 313.57 318.066 315.246 317.466L333.453 310.952C335.129 310.352 336.002 308.507 335.402 306.831L321.287 267.382C321.887 269.057 321.014 270.903 319.338 271.502Z" fill="#DEE3ED"/>
<path id="Vector_11" d="M352.719 259.559L334.511 266.073C332.836 266.673 330.99 265.8 330.391 264.124L344.506 303.574C345.106 305.25 346.951 306.122 348.626 305.523L366.834 299.008C368.51 298.409 369.383 296.563 368.783 294.888L354.668 255.438C355.267 257.114 354.395 258.959 352.719 259.559Z" fill="#DEE3ED"/>
</g>
<path id="Vector_12" d="M285.735 273.256L228.078 293.886C226.403 294.485 225.53 296.33 226.13 298.006L227.215 301.041C227.815 302.717 229.66 303.589 231.336 302.99L288.993 282.36C290.668 281.761 291.541 279.916 290.942 278.24L289.856 275.205C289.256 273.529 287.411 272.657 285.735 273.256Z" fill="#FFDC69"/>
<path id="Vector_13" d="M316.081 262.398L297.873 268.913C296.198 269.513 295.325 271.358 295.924 273.034L297.01 276.068C297.61 277.744 299.455 278.617 301.131 278.017L319.338 271.503C321.014 270.903 321.887 269.058 321.287 267.382L320.201 264.347C319.602 262.671 317.757 261.799 316.081 262.398Z" fill="#B4E173"/>
<path id="Vector_14" d="M349.462 250.455L331.254 256.97C329.578 257.569 328.705 259.414 329.305 261.09L330.391 264.125C330.99 265.801 332.836 266.673 334.511 266.074L352.719 259.559C354.395 258.959 355.267 257.114 354.668 255.438L353.582 252.404C352.982 250.728 351.137 249.855 349.462 250.455Z" fill="#FF969B"/>
<path id="laptop-bottom" d="M230.725 368.245L394.589 309.615L375.743 384.885C374.689 389.098 371.601 392.505 367.512 393.968L224.282 445.216C218.262 447.37 212.273 441.942 213.826 435.741L230.725 368.245Z" fill="#464655"/>
<g id="keyboard-back">
<path d="M240.403 375.077C241.073 372.522 242.96 370.463 245.446 369.573L375.126 323.174C377.397 322.361 379.65 324.426 379.038 326.759L370.413 359.653C369.743 362.208 367.856 364.267 365.37 365.157L235.69 411.556C233.419 412.369 231.166 410.304 231.777 407.97L240.403 375.077Z" fill="#BEC8DC"/>
<path d="M240.403 375.077C241.073 372.522 242.96 370.463 245.446 369.573L375.126 323.174C377.397 322.361 379.65 324.426 379.038 326.759L370.413 359.653C369.743 362.208 367.856 364.267 365.37 365.157L235.69 411.556C233.419 412.369 231.166 410.304 231.777 407.97L240.403 375.077Z" fill="#BEC8DC"/>
</g>
<g id="keys">
<g id="keyboard-keys">
<path id="Vector_15" d="M369.194 329.348L351.235 335.774C350.243 336.129 349.842 337.542 350.338 338.931C350.835 340.319 352.042 341.157 353.034 340.803L370.994 334.377C371.985 334.022 372.387 332.608 371.89 331.22C371.393 329.831 370.186 328.993 369.194 329.348Z" fill="#96A5B9"/>
<path id="Vector_16" d="M319.614 371.399L281.899 384.893C279.816 385.638 278.53 387.368 279.027 388.757C279.524 390.145 281.616 390.667 283.698 389.922L321.413 376.427C323.496 375.682 324.782 373.952 324.285 372.563C323.789 371.175 321.697 370.653 319.614 371.399Z" fill="#96A5B9"/>
<g id="keyboard-keys_2">
<path id="Vector_17" d="M257.964 369.146L247.236 372.985C245.755 373.515 244.957 375.07 245.454 376.459C245.951 377.847 247.554 378.543 249.036 378.013L259.763 374.175C261.244 373.645 262.043 372.089 261.546 370.701C261.049 369.312 259.445 368.616 257.964 369.146Z" fill="#96A5B9"/>
<path id="Vector_18" d="M279.42 361.469L268.692 365.308C267.211 365.838 266.413 367.393 266.91 368.782C267.406 370.17 269.01 370.866 270.491 370.336L281.219 366.498C282.7 365.968 283.498 364.412 283.002 363.024C282.505 361.635 280.901 360.939 279.42 361.469Z" fill="#A3AEC1"/>
<path id="Vector_19" d="M300.876 353.792L290.148 357.631C288.667 358.161 287.869 359.716 288.366 361.105C288.863 362.493 290.466 363.189 291.947 362.66L302.675 358.821C304.156 358.291 304.954 356.736 304.458 355.347C303.961 353.959 302.357 353.262 300.876 353.792Z" fill="#A3AEC1"/>
<path id="Vector_20" d="M322.332 346.116L311.604 349.954C310.123 350.484 309.324 352.039 309.821 353.428C310.318 354.816 311.922 355.513 313.403 354.983L324.131 351.144C325.612 350.614 326.41 349.059 325.913 347.67C325.416 346.282 323.813 345.586 322.332 346.116Z" fill="#A3AEC1"/>
<path id="Vector_21" d="M343.452 338.558L332.725 342.397C331.243 342.927 330.445 344.482 330.942 345.871C331.439 347.259 333.043 347.956 334.524 347.426L345.252 343.587C346.733 343.057 347.531 341.502 347.034 340.113C346.537 338.725 344.934 338.029 343.452 338.558Z" fill="#A3AEC1"/>
<path id="Vector_22" d="M256.224 377.872L245.496 381.711C244.015 382.241 243.217 383.796 243.714 385.185C244.211 386.573 245.814 387.269 247.296 386.739L258.023 382.901C259.504 382.371 260.303 380.816 259.806 379.427C259.309 378.039 257.705 377.342 256.224 377.872Z" fill="#96A5B9"/>
<path id="Vector_23" d="M269.874 372.989L263.169 375.388C262.243 375.719 261.895 377.113 262.392 378.502C262.889 379.89 264.042 380.748 264.968 380.416L271.673 378.017C272.599 377.686 272.946 376.292 272.449 374.903C271.953 373.515 270.799 372.657 269.874 372.989Z" fill="#A3AEC1"/>
<path id="Vector_24" d="M247.716 397.124L241.011 399.523C240.085 399.854 239.737 401.248 240.234 402.637C240.731 404.025 241.884 404.883 242.81 404.552L249.515 402.153C250.441 401.821 250.788 400.427 250.292 399.038C249.795 397.65 248.641 396.793 247.716 397.124Z" fill="#96A5B9"/>
<path id="Vector_25" d="M260.647 392.497L253.942 394.896C253.016 395.227 252.668 396.622 253.165 398.01C253.662 399.399 254.815 400.256 255.741 399.925L262.446 397.526C263.371 397.195 263.719 395.8 263.222 394.412C262.726 393.023 261.572 392.166 260.647 392.497Z" fill="#A3AEC1"/>
<path id="Vector_26" d="M272.859 388.127L266.154 390.526C265.229 390.858 264.881 392.252 265.378 393.641C265.874 395.029 267.028 395.886 267.954 395.555L274.658 393.156C275.584 392.825 275.932 391.431 275.435 390.042C274.938 388.654 273.785 387.796 272.859 388.127Z" fill="#A3AEC1"/>
<path id="Vector_27" d="M336.796 365.251L330.091 367.65C329.165 367.981 328.817 369.376 329.314 370.764C329.811 372.153 330.964 373.01 331.89 372.679L338.595 370.28C339.521 369.948 339.868 368.554 339.372 367.165C338.875 365.777 337.721 364.92 336.796 365.251Z" fill="#A3AEC1"/>
<path id="Vector_28" d="M349.727 360.624L343.022 363.023C342.096 363.354 341.748 364.749 342.245 366.137C342.742 367.526 343.895 368.383 344.821 368.052L351.526 365.653C352.452 365.322 352.799 363.927 352.303 362.539C351.806 361.15 350.652 360.293 349.727 360.624Z" fill="#A3AEC1"/>
<path id="Vector_29" d="M361.939 356.255L355.234 358.654C354.309 358.985 353.961 360.379 354.458 361.768C354.955 363.156 356.108 364.013 357.034 363.682L363.739 361.283C364.664 360.952 365.012 359.558 364.515 358.169C364.018 356.781 362.865 355.923 361.939 356.255Z" fill="#96A5B9"/>
<path id="Vector_30" d="M282.804 368.362L276.1 370.761C275.174 371.092 274.826 372.487 275.323 373.875C275.82 375.264 276.973 376.121 277.899 375.79L284.604 373.391C285.529 373.059 285.877 371.665 285.38 370.276C284.884 368.888 283.73 368.031 282.804 368.362Z" fill="#A3AEC1"/>
<path id="Vector_31" d="M295.735 363.735L289.031 366.134C288.105 366.465 287.757 367.86 288.254 369.248C288.751 370.637 289.904 371.494 290.83 371.163L297.535 368.764C298.46 368.433 298.808 367.038 298.311 365.65C297.815 364.261 296.661 363.404 295.735 363.735Z" fill="#A3AEC1"/>
<path id="Vector_32" d="M307.948 359.365L301.243 361.764C300.318 362.096 299.97 363.49 300.467 364.879C300.963 366.267 302.117 367.124 303.042 366.793L309.747 364.394C310.673 364.063 311.021 362.669 310.524 361.28C310.027 359.892 308.874 359.034 307.948 359.365Z" fill="#A3AEC1"/>
<path id="Vector_33" d="M320.879 354.739L314.174 357.138C313.248 357.469 312.901 358.863 313.397 360.252C313.894 361.64 315.048 362.498 315.973 362.166L322.678 359.768C323.604 359.436 323.952 358.042 323.455 356.653C322.958 355.265 321.805 354.408 320.879 354.739Z" fill="#A3AEC1"/>
<path id="Vector_34" d="M333.81 350.112L327.105 352.511C326.18 352.842 325.832 354.237 326.329 355.625C326.825 357.014 327.979 357.871 328.905 357.54L335.609 355.141C336.535 354.81 336.883 353.415 336.386 352.027C335.889 350.638 334.736 349.781 333.81 350.112Z" fill="#A3AEC1"/>
<path id="Vector_35" d="M346.741 345.485L340.036 347.884C339.11 348.216 338.763 349.61 339.26 350.998C339.756 352.387 340.91 353.244 341.835 352.913L348.54 350.514C349.466 350.183 349.814 348.788 349.317 347.4C348.82 346.011 347.667 345.154 346.741 345.485Z" fill="#A3AEC1"/>
<path id="Vector_36" d="M267.415 381.972L260.71 384.371C259.785 384.702 259.437 386.096 259.934 387.485C260.431 388.873 261.584 389.731 262.51 389.399L269.215 387C270.14 386.669 270.488 385.275 269.991 383.886C269.494 382.498 268.341 381.641 267.415 381.972Z" fill="#A3AEC1"/>
<path id="Vector_37" d="M280.346 377.345L273.641 379.744C272.716 380.075 272.368 381.47 272.865 382.858C273.362 384.247 274.515 385.104 275.441 384.773L282.145 382.374C283.071 382.043 283.419 380.648 282.922 379.26C282.425 377.871 281.272 377.014 280.346 377.345Z" fill="#A3AEC1"/>
<path id="Vector_38" d="M293.277 372.718L286.572 375.117C285.647 375.449 285.299 376.843 285.796 378.231C286.292 379.62 287.446 380.477 288.372 380.146L295.076 377.747C296.002 377.416 296.35 376.021 295.853 374.633C295.356 373.244 294.203 372.387 293.277 372.718Z" fill="#A3AEC1"/>
<path id="Vector_39" d="M306.208 368.092L299.503 370.491C298.578 370.822 298.23 372.216 298.727 373.605C299.223 374.993 300.377 375.851 301.302 375.519L308.007 373.12C308.933 372.789 309.281 371.395 308.784 370.006C308.287 368.618 307.134 367.76 306.208 368.092Z" fill="#A3AEC1"/>
<path id="Vector_40" d="M319.139 363.465L312.434 365.864C311.509 366.195 311.161 367.59 311.658 368.978C312.154 370.367 313.308 371.224 314.234 370.893L320.938 368.494C321.864 368.162 322.212 366.768 321.715 365.379C321.218 363.991 320.065 363.134 319.139 363.465Z" fill="#A3AEC1"/>
<path id="Vector_41" d="M332.07 358.838L325.365 361.237C324.44 361.568 324.092 362.963 324.589 364.351C325.085 365.74 326.239 366.597 327.165 366.266L333.869 363.867C334.795 363.536 335.143 362.141 334.646 360.753C334.149 359.364 332.996 358.507 332.07 358.838Z" fill="#A3AEC1"/>
<path id="Vector_42" d="M345.001 354.211L338.296 356.61C337.37 356.942 337.023 358.336 337.52 359.725C338.016 361.113 339.17 361.97 340.095 361.639L346.8 359.24C347.726 358.909 348.074 357.515 347.577 356.126C347.08 354.738 345.927 353.88 345.001 354.211Z" fill="#A3AEC1"/>
<path id="Vector_43" d="M253.766 386.855L243.038 390.694C241.557 391.224 240.759 392.779 241.256 394.168C241.752 395.556 243.356 396.253 244.837 395.723L255.565 391.884C257.046 391.354 257.844 389.799 257.348 388.41C256.851 387.022 255.247 386.326 253.766 386.855Z" fill="#96A5B9"/>
<path id="Vector_44" d="M366.137 338.545L355.41 342.384C353.929 342.914 353.13 344.469 353.627 345.858C354.124 347.246 355.728 347.942 357.209 347.412L367.937 343.574C369.418 343.044 370.216 341.488 369.719 340.1C369.222 338.711 367.619 338.015 366.137 338.545Z" fill="#96A5B9"/>
<path id="Vector_45" d="M364.398 347.271L353.67 351.11C352.189 351.64 351.391 353.195 351.887 354.584C352.384 355.972 353.988 356.668 355.469 356.139L366.197 352.3C367.678 351.77 368.476 350.215 367.979 348.826C367.483 347.438 365.879 346.741 364.398 347.271Z" fill="#96A5B9"/>
</g>
</g>
</g>
<path id="keypad" d="M269.594 399.224L328.911 378L322.066 404.877L262.748 426.101L269.594 399.224Z" fill="#96A5B9"/>
</g>
<g id="svg-notes">
<g id="svg-notebook" clip-path="url(#clip1_11_531)">
<g id="XMLID_1015_">
<path id="XMLID_1016_" d="M46.0082 130.356V118.854H76.6803V107.352H46.0082V95.8503H76.6803V84.3482H46.0082V72.8462H76.6803V61.3442H46.0082V49.8421H76.6803V26.8381H19.1702V153.36H76.6803V130.356H46.0082Z" fill="#DEDDE0"/>
<path id="XMLID_1017_" d="M76.6804 49.8421V61.3442V72.8462H107.353V84.3482H76.6804V95.8503H107.353V107.352H76.6804V118.854H107.353V130.356H76.6804V153.36H134.191V26.8381H76.6804V49.8421Z" fill="#CDCDD0"/>
<path id="XMLID_1018_" d="M120.772 7.66803V15.3361H109.27V7.66803H82.4314V15.3361H76.6804V26.8381H134.191V7.66803H120.772Z" fill="#FF9811"/>
<path id="XMLID_1019_" d="M76.6803 15.3361H70.9293V7.66803H44.0912V15.3361H32.5892V7.66803H19.1702V26.8381H76.6803V15.3361Z" fill="#FFDA44"/>
<path id="XMLID_1020_" d="M76.6804 49.8422H46.0083V61.3442H76.6804V49.8422Z" fill="white"/>
<path id="XMLID_1021_" d="M46.0083 84.3482H76.6804H107.352V72.8462H76.6804H46.0083V84.3482Z" fill="white"/>
<path id="XMLID_1022_" d="M46.0083 107.352H76.6804H107.352V95.8503H76.6804H46.0083V107.352Z" fill="white"/>
<path id="XMLID_1023_" d="M46.0083 130.356H76.6804H107.352V118.854H76.6804H46.0083V130.356Z" fill="white"/>
<path id="XMLID_1024_" d="M44.0911 15.336V7.66802V0H32.5891V7.66802V15.336H44.0911Z" fill="#565659"/>
<path id="XMLID_1025_" d="M76.6805 15.336H82.4315V7.66802V0H70.9294V7.66802V15.336H76.6805Z" fill="#565659"/>
<path id="XMLID_1026_" d="M120.772 15.336V7.66802V0H109.27V7.66802V15.336H120.772Z" fill="#565659"/>
</g>
</g>
<g id="svg-pencil">
<path id="Vector_46" d="M117.9 104.42L124.656 111.176L153.37 82.4633L149.992 79.0853L146.614 75.7072L137.855 84.4658L133.098 89.2228L117.9 104.42Z" fill="#D75055"/>
<path id="Vector_47" d="M153.37 82.4631V82.4633L124.656 111.176L131.413 117.932L160.122 89.2227L160.126 89.2191L153.37 82.4631Z" fill="#FF6469"/>
<g id="Group_3">
<path id="Vector_48" d="M146.614 75.7072L149.992 79.0853L146.614 75.7072Z" fill="#FFF0BE"/>
<path id="Vector_49" d="M160.126 89.2191L164.64 84.7055C164.717 84.6284 164.789 84.5483 164.856 84.4657C165.873 83.2202 165.801 81.3821 164.64 80.2206L160.126 75.707L153.37 82.4632L160.126 89.2191Z" fill="#FFF0BE"/>
<path id="Vector_50" d="M109.124 125.462C109.228 126.139 109.804 126.682 110.495 126.726C109.804 126.682 109.228 126.139 109.124 125.462Z" fill="#FFF0BE"/>
<path id="Vector_51" d="M119.59 123L118.218 123.587L131.413 117.932L124.657 111.176L116.212 119.621L119.59 123Z" fill="#FFF0BE"/>
</g>
<path id="Vector_52" d="M111.274 119.881L112.833 116.243L116.212 119.622L124.657 111.176L117.9 104.42L111.274 119.881V119.881Z" fill="#FFDC9B"/>
<path id="Vector_53" d="M116.212 119.621L112.834 116.243L111.274 119.881L109.229 124.655C109.11 124.931 109.085 125.206 109.125 125.463C109.228 126.139 109.804 126.683 110.496 126.726C110.716 126.74 110.947 126.703 111.178 126.604L118.218 123.587L119.59 122.999L116.212 119.621Z" fill="#D75055"/>
<path id="Vector_54" d="M153.37 82.4632L160.126 75.7072L155.493 71.0743C154.32 69.9017 152.419 69.9017 151.246 71.0743L146.614 75.7072L149.992 79.0852L153.37 82.4632Z" fill="#FFDC9B"/>
</g>
</g>
<g id="svg-coffee" clip-path="url(#clip2_11_531)">
<path id="Vector_55" d="M135.095 509.232C133.314 509.232 131.87 507.788 131.87 506.006C131.87 504.193 131.17 503.418 129.589 501.836C127.829 500.076 125.418 497.666 125.419 493.105C125.418 488.544 127.829 486.133 129.589 484.373C130.849 483.114 132.891 483.114 134.151 484.374C135.41 485.633 135.41 487.675 134.15 488.935C132.569 490.516 131.869 491.292 131.87 493.105C131.869 494.918 132.568 495.693 134.15 497.274C135.91 499.034 138.32 501.445 138.32 506.006C138.32 507.788 136.876 509.232 135.095 509.232Z" fill="#F6E27D"/>
<path id="Vector_56" d="M150.147 509.232C148.366 509.232 146.922 507.788 146.922 506.006C146.922 504.193 146.222 503.418 144.641 501.836C142.881 500.076 140.47 497.666 140.471 493.105C140.47 488.544 142.881 486.133 144.641 484.373C145.901 483.114 147.943 483.114 149.203 484.374C150.462 485.633 150.462 487.675 149.202 488.935C147.621 490.516 146.921 491.292 146.922 493.105C146.921 494.918 147.62 495.693 149.202 497.274C150.962 499.034 153.372 501.445 153.372 506.006C153.372 507.788 151.928 509.232 150.147 509.232Z" fill="#F2D23D"/>
<path id="Vector_57" d="M177.025 527.508C177.025 520.988 171.72 515.682 165.198 515.682H160.898H117.893C116.112 515.682 114.667 517.126 114.667 518.908V529.659C114.667 543.294 125.76 554.387 139.395 554.387C149.598 554.387 158.377 548.175 162.15 539.335H165.198C165.201 539.335 165.204 539.335 165.207 539.335C171.724 539.33 177.025 534.027 177.025 527.508ZM165.199 532.884C165.197 532.884 165.196 532.885 165.194 532.885H163.913C164.051 531.828 164.123 530.752 164.123 529.659V522.133H165.199C168.163 522.133 170.574 524.545 170.574 527.508C170.574 530.473 168.163 532.884 165.199 532.884Z" fill="#DC85A6"/>
<path id="Vector_58" d="M165.199 515.682H160.898H139.396V554.387C149.598 554.387 158.377 548.175 162.151 539.335H165.199C165.202 539.335 165.204 539.335 165.207 539.335C171.724 539.33 177.025 534.027 177.025 527.508C177.025 520.988 171.72 515.682 165.199 515.682ZM165.199 532.884C165.197 532.884 165.196 532.885 165.194 532.885H163.913C164.051 531.828 164.123 530.752 164.123 529.659V522.133H165.199C168.163 522.133 170.574 524.545 170.574 527.508C170.574 530.473 168.163 532.884 165.199 532.884Z" fill="#CE5C82"/>
<path id="Vector_59" d="M163.048 547.936H115.743C113.961 547.936 112.517 549.38 112.517 551.161C112.517 552.943 113.961 554.387 115.743 554.387H163.048C164.83 554.387 166.274 552.943 166.274 551.161C166.274 549.38 164.83 547.936 163.048 547.936Z" fill="#D8145D"/>
<path id="Vector_60" d="M163.048 547.936H139.396V554.387H163.048C164.83 554.387 166.274 552.943 166.274 551.161C166.274 549.38 164.83 547.936 163.048 547.936Z" fill="#A90140"/>
</g>
<g id="svg-mouse" clip-path="url(#clip3_11_531)">
<g id="Group_4">
<path id="Vector_61" d="M406.202 443.377C406.239 442.971 406.29 442.566 406.357 442.161C406.29 442.565 406.239 442.971 406.202 443.377Z" fill="#E4EAF6"/>
<path id="Vector_62" d="M409.134 454.477C408.98 454.255 408.831 454.028 408.687 453.799C408.831 454.028 408.98 454.255 409.134 454.477Z" fill="#E4EAF6"/>
<path id="Vector_63" d="M442.832 409.696C441.926 409.183 440.993 408.765 440.043 408.436C440.993 408.765 441.926 409.183 442.832 409.696Z" fill="#E4EAF6"/>
<path id="Vector_64" d="M406.357 442.16C406.447 441.621 406.563 441.083 406.707 440.548C406.563 441.083 406.447 441.621 406.357 442.16Z" fill="#E4EAF6"/>
<path id="Vector_65" d="M436.741 407.658C436.931 407.683 437.121 407.71 437.311 407.741C437.122 407.71 436.931 407.683 436.741 407.658Z" fill="#E4EAF6"/>
<path id="Vector_66" d="M437.312 407.741C437.852 407.831 438.39 407.947 438.924 408.091C438.389 407.947 437.852 407.831 437.312 407.741Z" fill="#E4EAF6"/>
<path id="Vector_67" d="M442.832 409.696C443.862 410.279 444.805 410.957 445.66 411.709C438.256 409.349 429.964 412.403 425.985 419.434L414.323 440.042C410.344 447.073 411.996 455.754 417.831 460.886C416.746 460.54 415.679 460.081 414.648 459.498C422.71 464.06 432.944 461.224 437.506 453.162L449.169 432.554C453.731 424.492 450.894 414.258 442.832 409.696ZM435.317 426.982C434.78 427.931 433.576 428.264 432.628 427.728C431.679 427.191 431.345 425.987 431.882 425.039L433.826 421.604L433.826 421.604L435.284 419.028C435.82 418.079 437.024 417.746 437.973 418.282C438.091 418.349 438.2 418.427 438.299 418.513C438.398 418.599 438.487 418.694 438.565 418.796C438.643 418.897 438.711 419.006 438.767 419.119C438.936 419.459 439.006 419.845 438.962 420.227C438.932 420.481 438.852 420.735 438.718 420.972L435.317 426.982L435.317 426.982Z" fill="#E4EAF6"/>
<path id="Vector_68" d="M438.924 408.091C439.086 408.135 439.248 408.182 439.41 408.231C439.249 408.182 439.086 408.135 438.924 408.091Z" fill="#E4EAF6"/>
<path id="Vector_69" d="M411.26 456.974C410.862 456.59 410.485 456.189 410.131 455.772C410.485 456.189 410.862 456.59 411.26 456.974Z" fill="#E4EAF6"/>
<path id="Vector_70" d="M408.312 436.64C407.599 437.9 407.067 439.213 406.707 440.548C407.067 439.213 407.599 437.9 408.312 436.64Z" fill="#E4EAF6"/>
<path id="Vector_71" d="M410.131 455.772C409.865 455.46 409.612 455.138 409.371 454.809C409.611 455.138 409.865 455.46 410.131 455.772Z" fill="#E4EAF6"/>
<path id="Vector_72" d="M414.648 459.498C413.389 458.785 412.257 457.934 411.26 456.974C412.257 457.934 413.389 458.785 414.648 459.498Z" fill="#E4EAF6"/>
<path id="Vector_73" d="M406.136 444.595C406.141 444.325 406.152 444.054 406.17 443.783C406.152 444.054 406.141 444.325 406.136 444.595Z" fill="#E4EAF6"/>
<path id="Vector_74" d="M434.877 407.52C435.147 407.525 435.418 407.536 435.689 407.554C435.418 407.536 435.147 407.525 434.877 407.52Z" fill="#E4EAF6"/>
</g>
<path id="Vector_75" d="M414.322 440.042L425.985 419.434C429.964 412.403 438.256 409.349 445.66 411.71C444.805 410.957 443.862 410.279 442.832 409.696C441.926 409.183 440.993 408.765 440.043 408.436C439.833 408.363 439.622 408.295 439.411 408.231C439.249 408.182 439.086 408.135 438.924 408.091C438.39 407.947 437.851 407.831 437.312 407.741C437.122 407.71 436.931 407.683 436.741 407.658C436.526 407.63 436.31 407.605 436.095 407.586C435.96 407.574 435.824 407.563 435.689 407.554C435.418 407.536 435.148 407.525 434.877 407.52C434.336 407.511 433.796 407.528 433.26 407.57C433.126 407.581 432.991 407.593 432.858 407.607C427.64 408.147 422.754 411.12 419.974 416.032L408.312 436.64C407.599 437.9 407.067 439.213 406.707 440.549C406.563 441.083 406.447 441.621 406.357 442.161C406.29 442.566 406.238 442.971 406.202 443.378C406.189 443.513 406.179 443.648 406.17 443.784C406.152 444.054 406.141 444.325 406.136 444.596C406.12 445.542 406.184 446.485 406.325 447.415C406.365 447.68 406.412 447.945 406.465 448.208C406.492 448.339 406.52 448.471 406.549 448.601C406.668 449.125 406.811 449.642 406.979 450.152C407.021 450.279 407.065 450.406 407.11 450.533C407.2 450.786 407.296 451.036 407.398 451.285C407.755 452.155 408.186 452.996 408.687 453.799C408.831 454.028 408.98 454.255 409.134 454.478C409.212 454.589 409.291 454.7 409.371 454.809C409.611 455.139 409.865 455.46 410.131 455.772C410.485 456.189 410.862 456.59 411.26 456.974C412.257 457.934 413.389 458.785 414.648 459.498C415.679 460.081 416.746 460.54 417.831 460.886C411.996 455.754 410.343 447.073 414.322 440.042Z" fill="#D1D9E9"/>
<g id="Group_5">
<path id="Vector_76" d="M438.961 420.227C439.005 419.845 438.936 419.459 438.767 419.119C438.936 419.459 439.005 419.845 438.961 420.227Z" fill="#96A5B9"/>
<path id="Vector_77" d="M438.299 418.513C438.398 418.599 438.487 418.694 438.565 418.796C438.487 418.694 438.398 418.599 438.299 418.513Z" fill="#96A5B9"/>
<path id="Vector_78" d="M438.718 420.972L437.26 423.548C436.723 424.496 435.52 424.83 434.571 424.293C433.623 423.756 433.289 422.552 433.826 421.604L431.882 425.039C431.345 425.987 431.679 427.191 432.627 427.728C433.576 428.264 434.78 427.931 435.317 426.982L438.718 420.972C438.852 420.734 438.932 420.481 438.961 420.227C438.932 420.481 438.852 420.735 438.718 420.972Z" fill="#96A5B9"/>
</g>
<path id="Vector_79" d="M434.571 424.293C435.52 424.83 436.724 424.496 437.26 423.548L438.718 420.972C438.852 420.734 438.932 420.481 438.962 420.227C439.006 419.845 438.936 419.459 438.767 419.119C438.711 419.006 438.643 418.897 438.565 418.796C438.487 418.694 438.398 418.599 438.299 418.513C438.2 418.427 438.091 418.349 437.973 418.282C437.024 417.746 435.82 418.079 435.284 419.028L433.826 421.604L433.826 421.604C433.289 422.552 433.623 423.756 434.571 424.293Z" fill="#AFBBD0"/>
</g>
<g id="svg-plant" clip-path="url(#clip4_11_531)">
<path id="Vector_80" d="M564.453 593.413C564.109 590.315 561.874 587.758 558.851 587.002C557.535 586.674 526.402 579.183 506.076 599.508C504.12 601.464 502.363 603.584 500.805 605.86L500.804 605.859C499.298 603.662 497.555 601.531 495.532 599.509C483.864 587.841 468.591 585.391 457.835 585.391C449.302 585.391 443.021 586.937 442.758 587.002C439.734 587.758 437.499 590.315 437.155 593.413C437.115 593.767 436.204 602.188 437.14 612.486C438.468 627.098 442.74 638.106 449.838 645.203C461.506 656.871 476.779 659.32 487.536 659.32C489.627 659.32 491.583 659.227 493.347 659.086V672.381H500.804H508.26V659.093C510.022 659.233 511.978 659.325 514.078 659.325C525.155 659.325 540.211 656.761 551.77 645.203C558.867 638.106 563.14 627.098 564.468 612.486C565.404 602.188 564.492 593.767 564.453 593.413Z" fill="#B6E892"/>
<path id="Vector_81" d="M543.056 672.381H531.872H508.26H500.804H493.348H469.736H458.552C454.434 672.381 451.096 675.719 451.096 679.837C451.096 683.955 454.434 687.294 458.552 687.294H463.062L469.229 742.796C469.649 746.573 472.841 749.429 476.64 749.429H500.803H524.967C528.767 749.429 531.958 746.573 532.378 742.796L538.544 687.294H543.055C547.172 687.294 550.511 683.955 550.511 679.837C550.512 675.719 547.174 672.381 543.056 672.381Z" fill="#FFB655"/>
<path id="Vector_82" d="M493.348 672.381H469.736H458.552C454.434 672.381 451.096 675.719 451.096 679.837C451.096 683.955 454.434 687.294 458.552 687.294H463.062L469.229 742.796C469.649 746.573 472.841 749.429 476.64 749.429H500.803V672.381H493.348Z" fill="#EE8700"/>
<path id="Vector_83" d="M500.804 605.859C499.298 603.662 497.555 601.531 495.532 599.509C483.864 587.84 468.592 585.391 457.835 585.391C449.302 585.391 443.021 586.937 442.758 587.002C439.734 587.758 437.499 590.315 437.155 593.413C437.115 593.767 436.204 602.188 437.14 612.486C438.468 627.098 442.74 638.106 449.838 645.203C461.506 656.871 476.779 659.32 487.536 659.32C489.627 659.32 491.583 659.227 493.347 659.086V672.381H500.804V605.859Z" fill="#7ED63E"/>
</g>
<g id="svg-smartphone" clip-path="url(#clip5_11_531)">
<path id="Vector_84" d="M233.265 621.347L193.499 650.939C190.754 652.981 190.184 656.863 192.227 659.608L256.342 745.768C258.385 748.513 262.266 749.082 265.012 747.039L304.777 717.448C307.523 715.405 308.092 711.523 306.049 708.778L241.934 622.619C239.892 619.874 236.01 619.304 233.265 621.347ZM211.686 647.702C211.005 646.787 211.195 645.493 212.11 644.812L222.052 637.414C222.967 636.733 224.261 636.923 224.942 637.838C225.622 638.753 225.433 640.047 224.518 640.728L214.576 648.126C213.661 648.807 212.367 648.617 211.686 647.702ZM205.482 649.744C206.397 649.064 207.691 649.253 208.372 650.168C209.053 651.083 208.863 652.378 207.948 653.058C207.033 653.739 205.739 653.55 205.058 652.635C204.378 651.719 204.567 650.425 205.482 649.744ZM282.428 728.93C280.598 730.292 278.011 729.912 276.649 728.082C275.287 726.252 275.666 723.664 277.497 722.302C279.327 720.94 281.914 721.32 283.276 723.15C284.638 724.98 284.259 727.568 282.428 728.93ZM281.775 683.077L296.57 702.96L253.491 735.017L238.695 715.134L201.706 665.427L244.785 633.37L281.775 683.077L281.775 683.077Z" fill="#707384"/>
<path id="Vector_85" d="M238.695 715.134L251.95 705.27C251.269 704.355 251.459 703.061 252.374 702.38C253.289 701.699 254.583 701.889 255.264 702.804L258.578 700.338C257.897 699.423 258.087 698.129 259.002 697.448C259.917 696.767 261.211 696.957 261.892 697.872L265.206 695.406C264.525 694.491 264.715 693.197 265.63 692.516C266.545 691.835 267.839 692.025 268.52 692.94L281.775 683.076L244.786 633.369L201.706 665.427L238.695 715.134ZM237.695 651.518C237.014 650.603 237.204 649.309 238.119 648.628L244.746 643.696C245.661 643.015 246.956 643.205 247.636 644.12L252.568 650.748C253.249 651.663 253.059 652.957 252.144 653.638L245.517 658.569C244.602 659.25 243.308 659.06 242.627 658.145L237.695 651.518ZM247.559 664.773C246.878 663.858 247.068 662.564 247.983 661.883L254.61 656.951C255.525 656.27 256.819 656.46 257.5 657.375L262.432 664.003C263.113 664.918 262.923 666.212 262.008 666.893L255.381 671.825C254.465 672.505 253.171 672.316 252.49 671.401L247.559 664.773ZM257.422 678.028C256.742 677.113 256.931 675.819 257.846 675.138L264.474 670.206C265.389 669.526 266.683 669.715 267.364 670.63L272.296 677.258C272.977 678.173 272.787 679.467 271.872 680.148L265.244 685.08C264.329 685.761 263.035 685.571 262.354 684.656L257.422 678.028ZM224.44 661.382C223.759 660.467 223.949 659.173 224.864 658.492L231.491 653.56C232.406 652.879 233.7 653.069 234.381 653.984L239.313 660.611C239.994 661.526 239.804 662.82 238.889 663.501L232.261 668.433C231.346 669.114 230.052 668.924 229.371 668.009L224.44 661.382ZM234.303 674.637C233.622 673.722 233.812 672.428 234.727 671.747L241.355 666.815C242.27 666.134 243.564 666.324 244.245 667.239L249.177 673.867C249.858 674.782 249.668 676.076 248.753 676.757L242.125 681.688C241.21 682.369 239.916 682.179 239.235 681.264L234.303 674.637ZM244.167 687.892C243.486 686.977 243.676 685.683 244.591 685.002L251.219 680.07C252.134 679.389 253.428 679.579 254.109 680.494L259.041 687.122C259.721 688.037 259.532 689.331 258.617 690.012L251.989 694.944C251.074 695.625 249.78 695.435 249.099 694.52L244.167 687.892ZM211.184 671.245C210.504 670.33 210.693 669.036 211.608 668.355L218.236 663.424C219.151 662.743 220.445 662.933 221.126 663.848L226.058 670.475C226.739 671.39 226.549 672.684 225.634 673.365L219.006 678.297C218.091 678.978 216.797 678.788 216.116 677.873L211.184 671.245ZM221.048 684.501C220.367 683.586 220.557 682.291 221.472 681.611L228.1 676.679C229.015 675.998 230.309 676.188 230.99 677.103L235.922 683.73C236.602 684.645 236.413 685.939 235.498 686.62L228.87 691.552C227.955 692.233 226.661 692.043 225.98 691.128L221.048 684.501ZM230.912 697.756C230.231 696.841 230.421 695.547 231.336 694.866L237.964 689.934C238.879 689.253 240.173 689.443 240.854 690.358L245.785 696.986C246.466 697.901 246.276 699.195 245.361 699.876L238.734 704.807C237.819 705.488 236.525 705.299 235.844 704.383L230.912 697.756Z" fill="#63AFDB"/>
<path id="Vector_86" d="M268.095 695.83C267.18 696.511 265.886 696.322 265.205 695.407L261.892 697.872C262.573 698.787 262.383 700.082 261.468 700.762C260.553 701.443 259.259 701.254 258.578 700.339L255.264 702.804C255.945 703.719 255.755 705.014 254.84 705.694C253.925 706.375 252.631 706.186 251.95 705.271L238.695 715.134L253.49 735.017L296.57 702.96L281.774 683.077L268.519 692.941C269.2 693.855 269.01 695.15 268.095 695.83ZM261.814 718.526C262.495 719.441 262.305 720.735 261.39 721.416L254.763 726.347C253.848 727.028 252.554 726.839 251.873 725.924L246.941 719.296C246.26 718.381 246.45 717.087 247.365 716.406L253.992 711.474C254.907 710.793 256.201 710.983 256.882 711.898L261.814 718.526ZM275.069 708.662C275.75 709.577 275.561 710.871 274.646 711.552L268.018 716.484C267.103 717.165 265.809 716.975 265.128 716.06L260.196 709.432C259.515 708.517 259.705 707.223 260.62 706.542L267.248 701.61C268.163 700.929 269.457 701.119 270.138 702.034L275.069 708.662ZM273.875 696.678L280.503 691.746C281.418 691.065 282.712 691.255 283.393 692.17L288.325 698.798C289.006 699.713 288.816 701.007 287.901 701.688L281.273 706.62C280.358 707.301 279.064 707.111 278.383 706.196L273.451 699.568C272.77 698.653 272.96 697.359 273.875 696.678Z" fill="#468CBE"/>
<g id="Group_6">
<path id="Vector_87" d="M214.576 648.126L224.517 640.729C225.433 640.048 225.622 638.754 224.941 637.838C224.261 636.923 222.966 636.734 222.051 637.415L212.11 644.812C211.195 645.493 211.005 646.787 211.686 647.702C212.367 648.617 213.661 648.807 214.576 648.126Z" fill="#464655"/>
<path id="Vector_88" d="M207.948 653.058C208.863 652.377 209.053 651.083 208.372 650.168C207.691 649.253 206.397 649.063 205.482 649.744C204.567 650.425 204.377 651.719 205.058 652.634C205.739 653.549 207.033 653.739 207.948 653.058Z" fill="#464655"/>
<path id="Vector_89" d="M282.429 728.93C284.259 727.568 284.638 724.98 283.276 723.15C281.914 721.32 279.327 720.94 277.497 722.302C275.666 723.664 275.287 726.252 276.649 728.082C278.011 729.912 280.598 730.292 282.429 728.93Z" fill="#464655"/>
</g>
<path id="Vector_90" d="M267.247 701.61L260.62 706.542C259.705 707.223 259.515 708.517 260.196 709.432L265.128 716.06C265.809 716.975 267.103 717.165 268.018 716.484L274.645 711.552C275.56 710.871 275.75 709.577 275.069 708.662L270.137 702.034C269.457 701.119 268.162 700.929 267.247 701.61ZM270.099 712.361C268.268 713.723 265.681 713.343 264.319 711.513C262.957 709.683 263.336 707.095 265.167 705.733C266.997 704.371 269.584 704.751 270.946 706.581C272.308 708.411 271.929 710.999 270.099 712.361Z" fill="#63AFDB"/>
<path id="Vector_91" d="M278.383 706.196C279.064 707.111 280.358 707.301 281.273 706.62L287.901 701.688C288.816 701.007 289.006 699.713 288.325 698.798L283.393 692.17C282.712 691.255 281.418 691.065 280.503 691.746L273.875 696.678C272.96 697.359 272.77 698.653 273.451 699.568L278.383 706.196Z" fill="#FF6469"/>
<path id="Vector_92" d="M253.992 711.474L247.365 716.406C246.449 717.087 246.26 718.381 246.941 719.296L251.872 725.924C252.553 726.839 253.847 727.028 254.762 726.347L261.39 721.416C262.305 720.735 262.495 719.441 261.814 718.526L256.882 711.898C256.201 710.983 254.907 710.793 253.992 711.474Z" fill="#00DCCD"/>
<path id="Vector_93" d="M251.989 694.944L258.617 690.012C259.532 689.331 259.721 688.037 259.041 687.122L254.109 680.494C253.428 679.579 252.134 679.389 251.219 680.07L244.591 685.002C243.676 685.683 243.486 686.977 244.167 687.892L249.099 694.52C249.78 695.435 251.074 695.625 251.989 694.944Z" fill="#FFDC69"/>
<path id="Vector_94" d="M265.244 685.08L271.872 680.148C272.787 679.467 272.977 678.173 272.296 677.258L267.364 670.63C266.683 669.715 265.389 669.526 264.474 670.206L257.846 675.138C256.931 675.819 256.742 677.113 257.422 678.028L262.354 684.656C263.035 685.571 264.329 685.761 265.244 685.08ZM261.545 680.109C260.864 679.194 261.054 677.9 261.969 677.219L265.283 674.753C266.198 674.072 267.492 674.262 268.173 675.177C268.854 676.092 268.664 677.386 267.749 678.067L264.435 680.533C263.52 681.214 262.226 681.024 261.545 680.109Z" fill="white"/>
<path id="Vector_95" d="M238.734 704.808L245.361 699.876C246.276 699.195 246.466 697.901 245.785 696.986L240.854 690.358C240.173 689.443 238.879 689.253 237.964 689.934L231.336 694.866C230.421 695.547 230.231 696.841 230.912 697.756L235.844 704.384C236.525 705.299 237.819 705.489 238.734 704.808ZM235.035 699.837C234.354 698.922 234.544 697.628 235.459 696.947L238.773 694.481C239.688 693.8 240.982 693.99 241.663 694.905C242.344 695.82 242.154 697.114 241.239 697.795L237.925 700.261C237.01 700.942 235.716 700.752 235.035 699.837Z" fill="#468CBE"/>
<path id="Vector_96" d="M242.125 681.688L248.753 676.757C249.668 676.076 249.858 674.782 249.177 673.867L244.245 667.239C243.564 666.324 242.27 666.134 241.355 666.815L234.727 671.747C233.812 672.428 233.622 673.722 234.303 674.637L239.235 681.264C239.916 682.18 241.21 682.369 242.125 681.688ZM238.426 676.718C237.745 675.803 237.935 674.509 238.85 673.828L242.164 671.362C243.079 670.681 244.373 670.871 245.054 671.786C245.735 672.701 245.545 673.995 244.63 674.676L241.316 677.142C240.401 677.823 239.107 677.633 238.426 676.718Z" fill="#464655"/>
<path id="Vector_97" d="M255.381 671.825L262.008 666.893C262.923 666.212 263.113 664.918 262.432 664.003L257.5 657.375C256.819 656.46 255.525 656.27 254.61 656.951L247.983 661.883C247.068 662.564 246.878 663.858 247.559 664.773L252.491 671.401C253.172 672.316 254.465 672.506 255.381 671.825Z" fill="#FFA055"/>
<path id="Vector_98" d="M228.87 691.552L235.497 686.62C236.412 685.939 236.602 684.645 235.921 683.73L230.99 677.103C230.309 676.188 229.015 675.998 228.099 676.679L221.472 681.611C220.557 682.292 220.367 683.586 221.048 684.501L225.98 691.128C226.661 692.043 227.955 692.233 228.87 691.552ZM226.019 680.802C227.849 679.44 230.437 679.819 231.798 681.65C233.16 683.48 232.781 686.067 230.951 687.429C229.12 688.791 226.533 688.412 225.171 686.581C223.809 684.751 224.189 682.164 226.019 680.802Z" fill="#A0D778"/>
<path id="Vector_99" d="M232.261 668.433L238.889 663.501C239.804 662.821 239.994 661.526 239.313 660.611L234.381 653.984C233.7 653.069 232.406 652.879 231.491 653.56L224.864 658.492C223.949 659.173 223.759 660.467 224.44 661.382L229.371 668.009C230.052 668.924 231.346 669.114 232.261 668.433Z" fill="#FF6469"/>
<path id="Vector_100" d="M245.517 658.569L252.144 653.638C253.059 652.957 253.249 651.663 252.568 650.748L247.636 644.12C246.956 643.205 245.661 643.015 244.746 643.696L238.119 648.628C237.204 649.309 237.014 650.603 237.695 651.518L242.627 658.145C243.308 659.06 244.602 659.25 245.517 658.569ZM242.666 647.819C244.496 646.457 247.083 646.837 248.445 648.667C249.807 650.497 249.428 653.085 247.598 654.446C245.767 655.808 243.18 655.429 241.818 653.599C240.456 651.768 240.835 649.181 242.666 647.819Z" fill="#00DCCD"/>
<g id="Group_7">
<path id="Vector_101" d="M219.006 678.297L225.634 673.365C226.549 672.684 226.739 671.39 226.058 670.475L221.126 663.848C220.445 662.933 219.151 662.743 218.236 663.424L211.608 668.356C210.693 669.036 210.503 670.331 211.184 671.246L216.116 677.873C216.797 678.788 218.091 678.978 219.006 678.297Z" fill="#FFDC69"/>
<path id="Vector_102" d="M230.95 687.429C232.781 686.067 233.16 683.48 231.798 681.65C230.436 679.82 227.849 679.44 226.019 680.802C224.188 682.164 223.809 684.751 225.171 686.582C226.533 688.412 229.12 688.791 230.95 687.429Z" fill="#FFDC69"/>
<path id="Vector_103" d="M270.098 712.361C271.929 710.999 272.308 708.411 270.946 706.581C269.584 704.751 266.997 704.371 265.167 705.733C263.336 707.095 262.957 709.683 264.319 711.513C265.681 713.343 268.268 713.723 270.098 712.361Z" fill="#FFDC69"/>
</g>
<path id="Vector_104" d="M247.598 654.446C249.428 653.085 249.807 650.497 248.446 648.667C247.084 646.837 244.496 646.457 242.666 647.819C240.836 649.181 240.456 651.768 241.818 653.599C243.18 655.429 245.768 655.808 247.598 654.446Z" fill="#FF6469"/>
<path id="Vector_105" d="M241.316 677.142L244.63 674.676C245.545 673.995 245.735 672.701 245.054 671.786C244.373 670.871 243.079 670.681 242.164 671.362L238.85 673.828C237.935 674.509 237.745 675.803 238.426 676.718C239.107 677.633 240.401 677.823 241.316 677.142Z" fill="#468CBE"/>
<path id="Vector_106" d="M264.435 680.533L267.749 678.067C268.664 677.386 268.854 676.092 268.173 675.177C267.492 674.262 266.198 674.072 265.283 674.753L261.969 677.219C261.054 677.9 260.864 679.194 261.545 680.109C262.226 681.024 263.52 681.214 264.435 680.533Z" fill="#FF6469"/>
<path id="Vector_107" d="M237.925 700.261L241.239 697.795C242.154 697.114 242.343 695.82 241.663 694.905C240.982 693.99 239.688 693.8 238.773 694.481L235.459 696.947C234.544 697.628 234.354 698.922 235.035 699.837C235.716 700.752 237.01 700.942 237.925 700.261Z" fill="white"/>
<path id="Vector_108" d="M254.84 705.694C255.755 705.013 255.945 703.719 255.264 702.804C254.583 701.889 253.289 701.699 252.374 702.38C251.459 703.061 251.269 704.355 251.95 705.27C252.631 706.185 253.925 706.375 254.84 705.694Z" fill="#464655"/>
<g id="Group_8">
<path id="Vector_109" d="M261.468 700.762C262.383 700.081 262.573 698.787 261.892 697.872C261.211 696.957 259.917 696.767 259.002 697.448C258.087 698.129 257.897 699.423 258.578 700.338C259.259 701.254 260.553 701.443 261.468 700.762Z" fill="white"/>
<path id="Vector_110" d="M268.095 695.831C269.011 695.15 269.2 693.856 268.519 692.94C267.838 692.025 266.545 691.836 265.629 692.517C264.714 693.198 264.524 694.491 265.205 695.407C265.886 696.322 267.18 696.511 268.095 695.831Z" fill="white"/>
</g>
</g>
<g id="svg-ide" clip-path="url(#clip6_11_531)">
<path id="Vector_111" d="M669.758 96.1569H455.648C448.826 96.1569 443.296 101.687 443.296 108.509V264.974C443.296 271.796 448.826 277.327 455.648 277.327H669.758C676.58 277.327 682.111 271.796 682.111 264.974V108.509C682.111 101.687 676.58 96.1569 669.758 96.1569ZM649.171 104.392H653.288C655.562 104.392 657.406 106.236 657.406 108.509C657.406 110.783 655.562 112.627 653.288 112.627H649.171C646.897 112.627 645.053 110.783 645.053 108.509C645.053 106.236 646.897 104.392 649.171 104.392ZM533.881 104.392H632.701C634.975 104.392 636.818 106.236 636.818 108.509C636.818 110.783 634.975 112.627 632.701 112.627H533.881C531.607 112.627 529.763 110.783 529.763 108.509C529.763 106.236 531.607 104.392 533.881 104.392ZM513.293 104.392H517.411C519.685 104.392 521.529 106.236 521.529 108.509C521.529 110.783 519.685 112.627 517.411 112.627H513.293C511.019 112.627 509.175 110.783 509.175 108.509C509.175 106.236 511.019 104.392 513.293 104.392ZM496.823 104.392H500.941C503.215 104.392 505.059 106.236 505.059 108.509C505.059 110.783 503.215 112.627 500.941 112.627H496.823C494.549 112.627 492.706 110.783 492.706 108.509C492.706 106.236 494.549 104.392 496.823 104.392ZM480.353 104.392C482.627 104.392 484.471 106.236 484.471 108.509C484.471 110.783 482.627 112.627 480.353 112.627C478.079 112.627 476.235 110.783 476.235 108.509C476.236 106.236 478.079 104.392 480.353 104.392ZM468.001 104.392C470.275 104.392 472.119 106.236 472.119 108.509C472.119 110.783 470.275 112.627 468.001 112.627C465.727 112.627 463.883 110.783 463.883 108.509C463.883 106.236 465.727 104.392 468.001 104.392ZM455.648 104.392C457.922 104.392 459.766 106.236 459.766 108.509C459.766 110.783 457.922 112.627 455.648 112.627C453.374 112.627 451.531 110.783 451.531 108.509C451.531 106.236 453.374 104.392 455.648 104.392ZM673.876 145.567V264.974C673.876 267.248 672.032 269.092 669.758 269.092H562.703H455.648C453.374 269.092 451.531 267.248 451.531 264.974V145.567V124.979C451.531 122.705 453.374 120.862 455.648 120.862H562.703H669.758C672.032 120.862 673.876 122.705 673.876 124.979V145.567ZM669.758 112.627H665.64C663.367 112.627 661.523 110.783 661.523 108.509C661.523 106.235 663.367 104.391 665.64 104.391H669.758C672.032 104.391 673.876 106.235 673.876 108.509C673.876 110.783 672.032 112.627 669.758 112.627Z" fill="#D2DCF0"/>
<path id="Vector_112" d="M562.703 269.092H669.758C672.032 269.092 673.876 267.248 673.876 264.974V145.567H562.703V269.092ZM624.466 166.154V162.037C624.466 159.763 626.31 157.919 628.583 157.919H657.406C659.68 157.919 661.524 159.763 661.524 162.037V166.154V199.095C661.524 201.368 659.68 203.212 657.406 203.212H628.583C626.31 203.212 624.466 201.368 624.466 199.095V166.154ZM575.056 166.154V162.037C575.056 159.763 576.9 157.919 579.173 157.919H607.996C610.27 157.919 612.114 159.763 612.114 162.037V166.154V199.095C612.114 201.368 610.27 203.212 607.996 203.212H579.173C576.899 203.212 575.055 201.368 575.055 199.095V166.154H575.056ZM579.173 215.564H583.291H657.406C659.68 215.564 661.524 217.408 661.524 219.682V252.622C661.524 254.896 659.68 256.74 657.406 256.74H583.291H579.173C576.899 256.74 575.055 254.896 575.055 252.622V219.682C575.056 217.408 576.899 215.564 579.173 215.564Z" fill="white"/>
<path id="Vector_113" d="M455.648 112.627C457.922 112.627 459.766 110.784 459.766 108.509C459.766 106.235 457.922 104.392 455.648 104.392C453.374 104.392 451.531 106.235 451.531 108.509C451.531 110.784 453.374 112.627 455.648 112.627Z" fill="#FF6469"/>
<path id="Vector_114" d="M468.001 112.627C470.275 112.627 472.119 110.784 472.119 108.509C472.119 106.235 470.275 104.392 468.001 104.392C465.727 104.392 463.883 106.235 463.883 108.509C463.883 110.784 465.727 112.627 468.001 112.627Z" fill="#FFE169"/>
<path id="Vector_115" d="M480.353 112.627C482.627 112.627 484.471 110.784 484.471 108.509C484.471 106.235 482.627 104.392 480.353 104.392C478.079 104.392 476.235 106.235 476.235 108.509C476.235 110.784 478.079 112.627 480.353 112.627Z" fill="#87E1AA"/>
<g id="Group_9">
<path id="Vector_116" d="M496.823 112.627H500.941C503.215 112.627 505.059 110.783 505.059 108.509C505.059 106.235 503.215 104.391 500.941 104.391H496.823C494.549 104.391 492.706 106.235 492.706 108.509C492.706 110.783 494.549 112.627 496.823 112.627Z" fill="#E4EAF6"/>
<path id="Vector_117" d="M513.293 112.627H517.411C519.685 112.627 521.528 110.783 521.528 108.509C521.528 106.235 519.685 104.391 517.411 104.391H513.293C511.019 104.391 509.175 106.235 509.175 108.509C509.175 110.783 511.019 112.627 513.293 112.627Z" fill="#E4EAF6"/>
<path id="Vector_118" d="M649.17 112.627H653.288C655.562 112.627 657.406 110.783 657.406 108.509C657.406 106.235 655.562 104.391 653.288 104.391H649.17C646.897 104.391 645.053 106.235 645.053 108.509C645.053 110.783 646.897 112.627 649.17 112.627Z" fill="#E4EAF6"/>
<path id="Vector_119" d="M669.758 104.392H665.64C663.367 104.392 661.523 106.236 661.523 108.509C661.523 110.783 663.367 112.627 665.64 112.627H669.758C672.032 112.627 673.876 110.783 673.876 108.509C673.876 106.236 672.032 104.392 669.758 104.392Z" fill="#E4EAF6"/>
<path id="Vector_120" d="M533.881 112.627H632.701C634.975 112.627 636.818 110.783 636.818 108.509C636.818 106.235 634.975 104.391 632.701 104.391H533.881C531.607 104.391 529.763 106.235 529.763 108.509C529.763 110.783 531.607 112.627 533.881 112.627Z" fill="#E4EAF6"/>
</g>
<path id="Vector_121" d="M669.758 120.862H562.703V145.567H673.876V124.98C673.876 122.705 672.032 120.862 669.758 120.862ZM591.526 137.332H575.056C572.782 137.332 570.938 135.488 570.938 133.214C570.938 130.94 572.782 129.097 575.056 129.097H591.526C593.799 129.097 595.643 130.94 595.643 133.214C595.643 135.488 593.799 137.332 591.526 137.332ZM624.466 137.332H607.996C605.722 137.332 603.878 135.488 603.878 133.214C603.878 130.94 605.722 129.097 607.996 129.097H624.466C626.74 129.097 628.583 130.94 628.583 133.214C628.583 135.488 626.74 137.332 624.466 137.332ZM657.405 137.332H640.936C638.662 137.332 636.818 135.488 636.818 133.214C636.818 130.94 638.662 129.097 640.936 129.097H657.405C659.679 129.097 661.523 130.94 661.523 133.214C661.523 135.488 659.68 137.332 657.405 137.332Z" fill="#FF6469"/>
<g id="Group_10">
<path id="Vector_122" d="M591.526 129.097H575.056C572.782 129.097 570.938 130.941 570.938 133.215C570.938 135.489 572.782 137.332 575.056 137.332H591.526C593.799 137.332 595.643 135.489 595.643 133.215C595.643 130.941 593.799 129.097 591.526 129.097Z" fill="#D2555F"/>
<path id="Vector_123" d="M624.466 129.097H607.996C605.722 129.097 603.878 130.941 603.878 133.215C603.878 135.489 605.722 137.332 607.996 137.332H624.466C626.74 137.332 628.583 135.489 628.583 133.215C628.583 130.941 626.74 129.097 624.466 129.097Z" fill="#D2555F"/>
<path id="Vector_124" d="M657.405 129.097H640.936C638.662 129.097 636.818 130.941 636.818 133.215C636.818 135.489 638.662 137.332 640.936 137.332H657.405C659.679 137.332 661.523 135.489 661.523 133.215C661.523 130.941 659.68 129.097 657.405 129.097Z" fill="#D2555F"/>
</g>
<g id="Group_11">
<path id="Vector_125" d="M579.173 203.212H607.996C610.269 203.212 612.113 201.368 612.113 199.094V166.154C612.113 168.428 610.269 170.272 607.996 170.272H579.173C576.899 170.272 575.055 168.428 575.055 166.154V199.094C575.056 201.368 576.899 203.212 579.173 203.212Z" fill="#DEE3ED"/>
<path id="Vector_126" d="M628.583 203.212H657.405C659.679 203.212 661.523 201.368 661.523 199.094V166.154C661.523 168.428 659.679 170.272 657.405 170.272H628.583C626.309 170.272 624.465 168.428 624.465 166.154V199.094C624.466 201.368 626.309 203.212 628.583 203.212Z" fill="#DEE3ED"/>
</g>
<path id="Vector_127" d="M579.173 170.272H607.996C610.269 170.272 612.113 168.428 612.113 166.154V162.037C612.113 159.763 610.269 157.919 607.996 157.919H579.173C576.899 157.919 575.055 159.763 575.055 162.037V166.154C575.056 168.428 576.899 170.272 579.173 170.272Z" fill="#FF969B"/>
<path id="Vector_128" d="M628.583 170.272H657.405C659.679 170.272 661.523 168.428 661.523 166.154V162.037C661.523 159.763 659.679 157.919 657.405 157.919H628.583C626.309 157.919 624.465 159.763 624.465 162.037V166.154C624.466 168.428 626.309 170.272 628.583 170.272Z" fill="#A0DCF0"/>
<path id="Vector_129" d="M587.408 219.682V252.622C587.408 254.896 585.565 256.74 583.291 256.74H657.406C659.68 256.74 661.524 254.896 661.524 252.622V219.682C661.524 217.408 659.68 215.564 657.406 215.564H583.291C585.565 215.564 587.408 217.408 587.408 219.682Z" fill="#DEE3ED"/>
<path id="Vector_130" d="M579.173 256.739H583.291C585.565 256.739 587.409 254.896 587.409 252.622V219.682C587.409 217.408 585.565 215.564 583.291 215.564H579.173C576.899 215.564 575.055 217.408 575.055 219.682V252.622C575.056 254.896 576.899 256.739 579.173 256.739Z" fill="#91E6BE"/>
<path id="Vector_131" d="M562.703 120.862H455.648C453.374 120.862 451.531 122.706 451.531 124.98V145.567V264.975C451.531 267.249 453.374 269.093 455.648 269.093H562.703V145.567V120.862ZM484.471 133.214H550.351C552.624 133.214 554.468 135.058 554.468 137.332C554.468 139.606 552.624 141.45 550.351 141.45H484.471C482.197 141.45 480.353 139.606 480.353 137.332C480.353 135.058 482.197 133.214 484.471 133.214ZM463.883 133.214H468.001C470.275 133.214 472.119 135.058 472.119 137.332C472.119 139.606 470.275 141.45 468.001 141.45H463.883C461.609 141.45 459.765 139.606 459.765 137.332C459.765 135.058 461.609 133.214 463.883 133.214ZM505.058 157.92H492.706C490.432 157.92 488.588 156.076 488.588 153.802C488.588 151.528 490.432 149.684 492.706 149.684H505.058C507.332 149.684 509.176 151.528 509.176 153.802C509.175 156.076 507.332 157.92 505.058 157.92ZM509.175 170.272C509.175 172.546 507.332 174.39 505.058 174.39H492.705C490.431 174.39 488.587 172.546 488.587 170.272C488.587 167.998 490.431 166.154 492.705 166.154H505.058C507.332 166.154 509.175 167.998 509.175 170.272ZM463.883 199.095H468.001C470.275 199.095 472.119 200.938 472.119 203.212C472.119 205.486 470.275 207.33 468.001 207.33H463.883C461.609 207.33 459.765 205.486 459.765 203.212C459.765 200.938 461.609 199.095 463.883 199.095ZM459.765 186.742C459.765 184.468 461.609 182.624 463.883 182.624H468.001C470.275 182.624 472.119 184.468 472.119 186.742C472.119 189.016 470.275 190.86 468.001 190.86H463.883C461.609 190.86 459.765 189.016 459.765 186.742ZM472.118 215.564H476.236C478.51 215.564 480.353 217.408 480.353 219.682C480.353 221.956 478.51 223.8 476.236 223.8H472.118C469.844 223.8 468 221.956 468 219.682C468 217.408 469.844 215.564 472.118 215.564ZM476.236 174.389H472.118C469.844 174.389 468 172.546 468 170.272C468 167.998 469.844 166.154 472.118 166.154H476.236C478.51 166.154 480.353 167.998 480.353 170.272C480.353 172.546 478.51 174.389 476.236 174.389ZM476.236 157.92H472.118C469.844 157.92 468 156.076 468 153.802C468 151.528 469.844 149.684 472.118 149.684H476.236C478.51 149.684 480.353 151.528 480.353 153.802C480.353 156.076 478.51 157.92 476.236 157.92ZM468.001 256.74H463.883C461.609 256.74 459.765 254.896 459.765 252.622C459.765 250.348 461.609 248.504 463.883 248.504H468.001C470.275 248.504 472.119 250.348 472.119 252.622C472.118 254.896 470.275 256.74 468.001 256.74ZM476.236 240.27H472.118C469.844 240.27 468 238.426 468 236.152C468 233.878 469.844 232.034 472.118 232.034H476.236C478.51 232.034 480.353 233.878 480.353 236.152C480.353 238.426 478.51 240.27 476.236 240.27ZM550.351 256.74H484.471C482.197 256.74 480.353 254.896 480.353 252.622C480.353 250.348 482.197 248.504 484.471 248.504H550.351C552.624 248.504 554.468 250.348 554.468 252.622C554.468 254.896 552.624 256.74 550.351 256.74ZM492.706 232.034H505.058C507.332 232.034 509.176 233.878 509.176 236.152C509.176 238.426 507.332 240.27 505.058 240.27H492.706C490.432 240.27 488.588 238.426 488.588 236.152C488.588 233.878 490.432 232.034 492.706 232.034ZM488.588 219.682C488.588 217.408 490.432 215.564 492.706 215.564H505.058C507.332 215.564 509.176 217.408 509.176 219.682C509.176 221.956 507.332 223.8 505.058 223.8H492.706C490.432 223.799 488.588 221.956 488.588 219.682ZM550.351 240.27H521.528C519.254 240.27 517.41 238.426 517.41 236.152C517.41 233.878 519.254 232.034 521.528 232.034H550.351C552.624 232.034 554.468 233.878 554.468 236.152C554.468 238.426 552.624 240.27 550.351 240.27ZM550.351 223.799H521.528C519.254 223.799 517.41 221.956 517.41 219.682C517.41 217.408 519.254 215.564 521.528 215.564H550.351C552.624 215.564 554.468 217.408 554.468 219.682C554.468 221.956 552.624 223.799 550.351 223.799ZM550.351 207.33H484.471C482.197 207.33 480.353 205.486 480.353 203.212C480.353 200.938 482.197 199.094 484.471 199.094H550.351C552.624 199.094 554.468 200.938 554.468 203.212C554.468 205.486 552.624 207.33 550.351 207.33ZM550.351 190.86H484.471C482.197 190.86 480.353 189.016 480.353 186.742C480.353 184.468 482.197 182.624 484.471 182.624H550.351C552.624 182.624 554.468 184.468 554.468 186.742C554.468 189.016 552.624 190.86 550.351 190.86ZM550.351 174.389H521.528C519.254 174.389 517.41 172.546 517.41 170.272C517.41 167.998 519.254 166.154 521.528 166.154H550.351C552.624 166.154 554.468 167.998 554.468 170.272C554.468 172.546 552.624 174.389 550.351 174.389ZM550.351 157.92H521.528C519.254 157.92 517.41 156.076 517.41 153.802C517.41 151.528 519.254 149.684 521.528 149.684H550.351C552.624 149.684 554.468 151.528 554.468 153.802C554.468 156.076 552.624 157.92 550.351 157.92Z" fill="#464655"/>
<path id="Vector_132" d="M484.471 141.45H550.351C552.624 141.45 554.468 139.606 554.468 137.332C554.468 135.058 552.624 133.214 550.351 133.214H484.471C482.197 133.214 480.353 135.058 480.353 137.332C480.353 139.606 482.197 141.45 484.471 141.45Z" fill="#FFE169"/>
<g id="Group_12">
<path id="Vector_133" d="M505.058 149.685H492.706C490.432 149.685 488.588 151.528 488.588 153.802C488.588 156.076 490.432 157.92 492.706 157.92H505.058C507.332 157.92 509.176 156.076 509.176 153.802C509.175 151.528 507.332 149.685 505.058 149.685Z" fill="#91E6BE"/>
<path id="Vector_134" d="M505.058 166.154H492.706C490.432 166.154 488.588 167.998 488.588 170.272C488.588 172.546 490.432 174.39 492.706 174.39H505.058C507.332 174.39 509.176 172.546 509.176 170.272C509.176 167.998 507.332 166.154 505.058 166.154Z" fill="#91E6BE"/>
</g>
<path id="Vector_135" d="M550.351 182.624H484.471C482.197 182.624 480.353 184.468 480.353 186.742C480.353 189.016 482.197 190.86 484.471 190.86H550.351C552.624 190.86 554.468 189.016 554.468 186.742C554.468 184.468 552.624 182.624 550.351 182.624Z" fill="#FFE169"/>
<g id="Group_13">
<path id="Vector_136" d="M550.351 199.095H484.471C482.197 199.095 480.353 200.938 480.353 203.212C480.353 205.486 482.197 207.33 484.471 207.33H550.351C552.624 207.33 554.468 205.486 554.468 203.212C554.468 200.938 552.624 199.095 550.351 199.095Z" fill="white"/>
<path id="Vector_137" d="M550.351 149.685H521.528C519.254 149.685 517.41 151.528 517.41 153.802C517.41 156.076 519.254 157.92 521.528 157.92H550.351C552.624 157.92 554.468 156.076 554.468 153.802C554.468 151.528 552.624 149.685 550.351 149.685Z" fill="white"/>
<path id="Vector_138" d="M550.351 166.154H521.528C519.254 166.154 517.41 167.998 517.41 170.272C517.41 172.546 519.254 174.39 521.528 174.39H550.351C552.624 174.39 554.468 172.546 554.468 170.272C554.468 167.998 552.624 166.154 550.351 166.154Z" fill="white"/>
<path id="Vector_139" d="M550.351 215.564H521.528C519.254 215.564 517.41 217.408 517.41 219.682C517.41 221.956 519.254 223.8 521.528 223.8H550.351C552.624 223.8 554.468 221.956 554.468 219.682C554.468 217.408 552.624 215.564 550.351 215.564Z" fill="white"/>
<path id="Vector_140" d="M550.351 232.034H521.528C519.254 232.034 517.41 233.878 517.41 236.152C517.41 238.426 519.254 240.27 521.528 240.27H550.351C552.624 240.27 554.468 238.426 554.468 236.152C554.468 233.878 552.624 232.034 550.351 232.034Z" fill="white"/>
</g>
<g id="Group_14">
<path id="Vector_141" d="M492.706 223.799H505.058C507.332 223.799 509.176 221.955 509.176 219.682C509.176 217.408 507.332 215.564 505.058 215.564H492.706C490.432 215.564 488.588 217.408 488.588 219.682C488.588 221.955 490.432 223.799 492.706 223.799Z" fill="#91E6BE"/>
<path id="Vector_142" d="M492.706 240.27H505.058C507.332 240.27 509.176 238.426 509.176 236.152C509.176 233.878 507.332 232.034 505.058 232.034H492.706C490.432 232.034 488.588 233.878 488.588 236.152C488.588 238.426 490.432 240.27 492.706 240.27Z" fill="#91E6BE"/>
</g>
<path id="Vector_143" d="M550.351 248.505H484.471C482.197 248.505 480.353 250.348 480.353 252.622C480.353 254.896 482.197 256.74 484.471 256.74H550.351C552.624 256.74 554.468 254.896 554.468 252.622C554.468 250.348 552.624 248.505 550.351 248.505Z" fill="#FFE169"/>
<g id="Group_15">
<path id="Vector_144" d="M463.883 141.45H468.001C470.275 141.45 472.118 139.606 472.118 137.332C472.118 135.058 470.275 133.214 468.001 133.214H463.883C461.609 133.214 459.765 135.058 459.765 137.332C459.765 139.606 461.609 141.45 463.883 141.45Z" fill="#FF6469"/>
<path id="Vector_145" d="M476.236 149.685H472.118C469.844 149.685 468 151.528 468 153.802C468 156.076 469.844 157.92 472.118 157.92H476.236C478.51 157.92 480.353 156.076 480.353 153.802C480.353 151.528 478.51 149.685 476.236 149.685Z" fill="#FF6469"/>
<path id="Vector_146" d="M476.236 166.154H472.118C469.844 166.154 468 167.998 468 170.272C468 172.546 469.844 174.39 472.118 174.39H476.236C478.51 174.39 480.353 172.546 480.353 170.272C480.353 167.998 478.51 166.154 476.236 166.154Z" fill="#FF6469"/>
<path id="Vector_147" d="M463.883 190.86H468.001C470.275 190.86 472.118 189.016 472.118 186.742C472.118 184.468 470.275 182.624 468.001 182.624H463.883C461.609 182.624 459.765 184.468 459.765 186.742C459.765 189.016 461.609 190.86 463.883 190.86Z" fill="#FF6469"/>
<path id="Vector_148" d="M463.883 207.329H468.001C470.275 207.329 472.118 205.486 472.118 203.212C472.118 200.938 470.275 199.094 468.001 199.094H463.883C461.609 199.094 459.765 200.938 459.765 203.212C459.765 205.486 461.609 207.329 463.883 207.329Z" fill="#FF6469"/>
<path id="Vector_149" d="M472.118 223.799H476.236C478.51 223.799 480.353 221.955 480.353 219.682C480.353 217.408 478.51 215.564 476.236 215.564H472.118C469.844 215.564 468 217.408 468 219.682C468 221.955 469.844 223.799 472.118 223.799Z" fill="#FF6469"/>
<path id="Vector_150" d="M476.236 232.034H472.118C469.844 232.034 468 233.878 468 236.152C468 238.426 469.844 240.27 472.118 240.27H476.236C478.51 240.27 480.353 238.426 480.353 236.152C480.353 233.878 478.51 232.034 476.236 232.034Z" fill="#FF6469"/>
<path id="Vector_151" d="M468.001 248.505H463.883C461.609 248.505 459.765 250.348 459.765 252.622C459.765 254.896 461.609 256.74 463.883 256.74H468.001C470.275 256.74 472.118 254.896 472.118 252.622C472.118 250.348 470.275 248.505 468.001 248.505Z" fill="#FF6469"/>
</g>
</g>
</g>
<defs>
<clipPath id="clip0_11_531">
<rect width="228.133" height="223.555" fill="white" transform="translate(142.503 254.059) rotate(-19.6872)"/>
</clipPath>
<clipPath id="clip1_11_531">
<rect width="153.36" height="153.36" fill="white"/>
</clipPath>
<clipPath id="clip2_11_531">
<rect width="70.9578" height="70.9578" fill="white" transform="translate(109.292 483.429)"/>
</clipPath>
<clipPath id="clip3_11_531">
<rect width="57.2241" height="57.2241" fill="white" transform="translate(417.931 395.604) rotate(29.5057)"/>
</clipPath>
<clipPath id="clip4_11_531">
<rect width="164.042" height="164.042" fill="white" transform="translate(418.783 585.387)"/>
</clipPath>
<clipPath id="clip5_11_531">
<rect width="119.789" height="119.789" fill="white" transform="translate(165.331 671.899) rotate(-36.6545)"/>
</clipPath>
<clipPath id="clip6_11_531">
<rect width="238.815" height="238.815" fill="white" transform="translate(443.296 67.3344)"/>
</clipPath>
</defs>
</svg>
